<mxfile host="app.diagrams.net" agent="Mozilla/5.0 (Macintosh; Intel Mac OS X 10_15_7) AppleWebKit/537.36 (KHTML, like Gecko) Chrome/130.0.0.0 Safari/537.36" version="24.8.4">
  <diagram name="Page-1" id="nEY_Bcra5Jke5-RZWXWd">
    <mxGraphModel dx="4285" dy="5600" grid="1" gridSize="10" guides="1" tooltips="1" connect="1" arrows="1" fold="1" page="1" pageScale="1" pageWidth="850" pageHeight="1100" math="0" shadow="0">
      <root>
        <mxCell id="0" />
        <mxCell id="1" parent="0" />
        <mxCell id="YCWpmOM7ewB6S8Fy5KMS-416" value="" style="rounded=1;whiteSpace=wrap;html=1;" vertex="1" parent="1">
          <mxGeometry x="-510" y="-1190" width="2090" height="857.5" as="geometry" />
        </mxCell>
        <mxCell id="YCWpmOM7ewB6S8Fy5KMS-214" value="" style="rounded=1;whiteSpace=wrap;html=1;" vertex="1" parent="1">
          <mxGeometry x="-530" y="-240" width="2210" height="1380" as="geometry" />
        </mxCell>
        <mxCell id="YCWpmOM7ewB6S8Fy5KMS-215" style="edgeStyle=orthogonalEdgeStyle;rounded=0;orthogonalLoop=1;jettySize=auto;html=1;entryX=-0.02;entryY=0.318;entryDx=0;entryDy=0;entryPerimeter=0;" edge="1" parent="1" source="YCWpmOM7ewB6S8Fy5KMS-224" target="YCWpmOM7ewB6S8Fy5KMS-230">
          <mxGeometry relative="1" as="geometry">
            <mxPoint x="580" y="380" as="targetPoint" />
            <Array as="points">
              <mxPoint x="580" y="290" />
              <mxPoint x="580" y="410" />
            </Array>
          </mxGeometry>
        </mxCell>
        <mxCell id="YCWpmOM7ewB6S8Fy5KMS-216" value="&amp;nbsp;Request to view calendar" style="edgeLabel;html=1;align=center;verticalAlign=middle;resizable=0;points=[];" vertex="1" connectable="0" parent="YCWpmOM7ewB6S8Fy5KMS-215">
          <mxGeometry x="-0.2136" y="-1" relative="1" as="geometry">
            <mxPoint as="offset" />
          </mxGeometry>
        </mxCell>
        <mxCell id="YCWpmOM7ewB6S8Fy5KMS-217" value="5" style="edgeLabel;html=1;align=center;verticalAlign=middle;resizable=0;points=[];" vertex="1" connectable="0" parent="YCWpmOM7ewB6S8Fy5KMS-215">
          <mxGeometry x="-0.6692" relative="1" as="geometry">
            <mxPoint as="offset" />
          </mxGeometry>
        </mxCell>
        <mxCell id="YCWpmOM7ewB6S8Fy5KMS-218" style="edgeStyle=orthogonalEdgeStyle;rounded=0;orthogonalLoop=1;jettySize=auto;html=1;entryX=0.5;entryY=0;entryDx=0;entryDy=0;" edge="1" parent="1" target="YCWpmOM7ewB6S8Fy5KMS-301">
          <mxGeometry relative="1" as="geometry">
            <mxPoint x="255" y="350" as="sourcePoint" />
            <Array as="points">
              <mxPoint x="256" y="605" />
            </Array>
          </mxGeometry>
        </mxCell>
        <mxCell id="YCWpmOM7ewB6S8Fy5KMS-219" value="Fill in event details (name, type, duration)" style="edgeLabel;html=1;align=center;verticalAlign=middle;resizable=0;points=[];" vertex="1" connectable="0" parent="YCWpmOM7ewB6S8Fy5KMS-218">
          <mxGeometry x="0.2356" y="-4" relative="1" as="geometry">
            <mxPoint as="offset" />
          </mxGeometry>
        </mxCell>
        <mxCell id="YCWpmOM7ewB6S8Fy5KMS-220" value="1" style="edgeLabel;html=1;align=center;verticalAlign=middle;resizable=0;points=[];" vertex="1" connectable="0" parent="YCWpmOM7ewB6S8Fy5KMS-218">
          <mxGeometry x="0.4967" relative="1" as="geometry">
            <mxPoint as="offset" />
          </mxGeometry>
        </mxCell>
        <mxCell id="YCWpmOM7ewB6S8Fy5KMS-221" style="edgeStyle=orthogonalEdgeStyle;rounded=0;orthogonalLoop=1;jettySize=auto;html=1;" edge="1" parent="1" source="YCWpmOM7ewB6S8Fy5KMS-224" target="YCWpmOM7ewB6S8Fy5KMS-328">
          <mxGeometry relative="1" as="geometry" />
        </mxCell>
        <mxCell id="YCWpmOM7ewB6S8Fy5KMS-222" value="&amp;nbsp;Share booking link" style="edgeLabel;html=1;align=center;verticalAlign=middle;resizable=0;points=[];" vertex="1" connectable="0" parent="YCWpmOM7ewB6S8Fy5KMS-221">
          <mxGeometry x="0.003" y="2" relative="1" as="geometry">
            <mxPoint x="-1" as="offset" />
          </mxGeometry>
        </mxCell>
        <mxCell id="YCWpmOM7ewB6S8Fy5KMS-223" value="13" style="edgeLabel;html=1;align=center;verticalAlign=middle;resizable=0;points=[];" vertex="1" connectable="0" parent="YCWpmOM7ewB6S8Fy5KMS-221">
          <mxGeometry x="-0.3989" y="-4" relative="1" as="geometry">
            <mxPoint as="offset" />
          </mxGeometry>
        </mxCell>
        <mxCell id="YCWpmOM7ewB6S8Fy5KMS-224" value="Property Member" style="shape=umlActor;verticalLabelPosition=bottom;verticalAlign=top;html=1;" vertex="1" parent="1">
          <mxGeometry x="240" y="260" width="30" height="60" as="geometry" />
        </mxCell>
        <mxCell id="YCWpmOM7ewB6S8Fy5KMS-225" style="edgeStyle=orthogonalEdgeStyle;rounded=0;orthogonalLoop=1;jettySize=auto;html=1;entryX=1;entryY=0.75;entryDx=0;entryDy=0;" edge="1" parent="1" source="YCWpmOM7ewB6S8Fy5KMS-230" target="YCWpmOM7ewB6S8Fy5KMS-283">
          <mxGeometry relative="1" as="geometry">
            <Array as="points">
              <mxPoint x="700" y="770" />
            </Array>
          </mxGeometry>
        </mxCell>
        <mxCell id="YCWpmOM7ewB6S8Fy5KMS-226" value="Fetch events" style="edgeLabel;html=1;align=center;verticalAlign=middle;resizable=0;points=[];" vertex="1" connectable="0" parent="YCWpmOM7ewB6S8Fy5KMS-225">
          <mxGeometry x="-0.277" relative="1" as="geometry">
            <mxPoint as="offset" />
          </mxGeometry>
        </mxCell>
        <mxCell id="YCWpmOM7ewB6S8Fy5KMS-227" value="8" style="edgeLabel;html=1;align=center;verticalAlign=middle;resizable=0;points=[];" vertex="1" connectable="0" parent="YCWpmOM7ewB6S8Fy5KMS-225">
          <mxGeometry x="-0.6533" relative="1" as="geometry">
            <mxPoint y="-1" as="offset" />
          </mxGeometry>
        </mxCell>
        <mxCell id="YCWpmOM7ewB6S8Fy5KMS-228" style="edgeStyle=orthogonalEdgeStyle;rounded=0;orthogonalLoop=1;jettySize=auto;html=1;exitX=0;exitY=0.428;exitDx=0;exitDy=0;exitPerimeter=0;" edge="1" parent="1" source="YCWpmOM7ewB6S8Fy5KMS-230">
          <mxGeometry relative="1" as="geometry">
            <mxPoint x="665" y="420.0000000000002" as="sourcePoint" />
            <mxPoint x="270" y="340" as="targetPoint" />
            <Array as="points">
              <mxPoint x="270" y="430" />
            </Array>
          </mxGeometry>
        </mxCell>
        <mxCell id="YCWpmOM7ewB6S8Fy5KMS-229" value="Push real-time updates" style="edgeLabel;html=1;align=center;verticalAlign=middle;resizable=0;points=[];" vertex="1" connectable="0" parent="YCWpmOM7ewB6S8Fy5KMS-228">
          <mxGeometry x="0.0389" y="3" relative="1" as="geometry">
            <mxPoint as="offset" />
          </mxGeometry>
        </mxCell>
        <mxCell id="YCWpmOM7ewB6S8Fy5KMS-230" value="" style="strokeWidth=1;shadow=0;dashed=0;align=center;html=1;shape=mxgraph.mockup.forms.rrect;rSize=5;strokeColor=#999999;fillColor=#ffffff;" vertex="1" parent="1">
          <mxGeometry x="650" y="350" width="190" height="187" as="geometry" />
        </mxCell>
        <mxCell id="YCWpmOM7ewB6S8Fy5KMS-231" value="MyCal" style="strokeWidth=1;shadow=0;dashed=0;align=center;html=1;shape=mxgraph.mockup.forms.anchor;fontColor=#999999;" vertex="1" parent="YCWpmOM7ewB6S8Fy5KMS-230">
          <mxGeometry x="35.625" y="8.548571428571428" width="118.75" height="21.37142857142857" as="geometry" />
        </mxCell>
        <mxCell id="YCWpmOM7ewB6S8Fy5KMS-232" value="&lt;" style="strokeWidth=1;shadow=0;dashed=0;align=center;html=1;shape=mxgraph.mockup.forms.rrect;rSize=4;strokeColor=#999999;fontColor=#008cff;fontSize=19;fontStyle=1;" vertex="1" parent="YCWpmOM7ewB6S8Fy5KMS-230">
          <mxGeometry x="9.5" y="8.548571428571428" width="29.6875" height="21.37142857142857" as="geometry" />
        </mxCell>
        <mxCell id="YCWpmOM7ewB6S8Fy5KMS-233" value="&gt;" style="strokeWidth=1;shadow=0;dashed=0;align=center;html=1;shape=mxgraph.mockup.forms.rrect;rSize=4;strokeColor=#999999;fontColor=#008cff;fontSize=19;fontStyle=1;" vertex="1" parent="YCWpmOM7ewB6S8Fy5KMS-230">
          <mxGeometry x="150.8125" y="8.548571428571428" width="29.6875" height="21.37142857142857" as="geometry" />
        </mxCell>
        <mxCell id="YCWpmOM7ewB6S8Fy5KMS-234" value="Mo" style="strokeWidth=1;shadow=0;dashed=0;align=center;html=1;shape=mxgraph.mockup.forms.anchor;fontColor=#999999;" vertex="1" parent="YCWpmOM7ewB6S8Fy5KMS-230">
          <mxGeometry x="11.875" y="29.919999999999998" width="23.75" height="21.37142857142857" as="geometry" />
        </mxCell>
        <mxCell id="YCWpmOM7ewB6S8Fy5KMS-235" value="Tu" style="strokeWidth=1;shadow=0;dashed=0;align=center;html=1;shape=mxgraph.mockup.forms.anchor;fontColor=#999999;" vertex="1" parent="YCWpmOM7ewB6S8Fy5KMS-230">
          <mxGeometry x="35.625" y="29.919999999999998" width="23.75" height="21.37142857142857" as="geometry" />
        </mxCell>
        <mxCell id="YCWpmOM7ewB6S8Fy5KMS-236" value="We" style="strokeWidth=1;shadow=0;dashed=0;align=center;html=1;shape=mxgraph.mockup.forms.anchor;fontColor=#999999;" vertex="1" parent="YCWpmOM7ewB6S8Fy5KMS-230">
          <mxGeometry x="59.375" y="29.919999999999998" width="23.75" height="21.37142857142857" as="geometry" />
        </mxCell>
        <mxCell id="YCWpmOM7ewB6S8Fy5KMS-237" value="Th" style="strokeWidth=1;shadow=0;dashed=0;align=center;html=1;shape=mxgraph.mockup.forms.anchor;fontColor=#999999;" vertex="1" parent="YCWpmOM7ewB6S8Fy5KMS-230">
          <mxGeometry x="83.125" y="29.919999999999998" width="23.75" height="21.37142857142857" as="geometry" />
        </mxCell>
        <mxCell id="YCWpmOM7ewB6S8Fy5KMS-238" value="Fr" style="strokeWidth=1;shadow=0;dashed=0;align=center;html=1;shape=mxgraph.mockup.forms.anchor;fontColor=#999999;" vertex="1" parent="YCWpmOM7ewB6S8Fy5KMS-230">
          <mxGeometry x="106.875" y="29.919999999999998" width="23.75" height="21.37142857142857" as="geometry" />
        </mxCell>
        <mxCell id="YCWpmOM7ewB6S8Fy5KMS-239" value="Sa" style="strokeWidth=1;shadow=0;dashed=0;align=center;html=1;shape=mxgraph.mockup.forms.anchor;fontColor=#999999;" vertex="1" parent="YCWpmOM7ewB6S8Fy5KMS-230">
          <mxGeometry x="130.625" y="29.919999999999998" width="23.75" height="21.37142857142857" as="geometry" />
        </mxCell>
        <mxCell id="YCWpmOM7ewB6S8Fy5KMS-240" value="Su" style="strokeWidth=1;shadow=0;dashed=0;align=center;html=1;shape=mxgraph.mockup.forms.anchor;fontColor=#999999;" vertex="1" parent="YCWpmOM7ewB6S8Fy5KMS-230">
          <mxGeometry x="154.375" y="29.919999999999998" width="23.75" height="21.37142857142857" as="geometry" />
        </mxCell>
        <mxCell id="YCWpmOM7ewB6S8Fy5KMS-241" value="1" style="strokeWidth=1;shadow=0;dashed=0;align=center;html=1;shape=mxgraph.mockup.forms.rrect;rSize=0;strokeColor=#999999;fontColor=#999999;" vertex="1" parent="YCWpmOM7ewB6S8Fy5KMS-230">
          <mxGeometry x="11.875" y="51.29142857142857" width="23.75" height="21.37142857142857" as="geometry" />
        </mxCell>
        <mxCell id="YCWpmOM7ewB6S8Fy5KMS-242" value="2" style="strokeWidth=1;shadow=0;dashed=0;align=center;html=1;shape=mxgraph.mockup.forms.rrect;rSize=0;strokeColor=#999999;fontColor=#999999;" vertex="1" parent="YCWpmOM7ewB6S8Fy5KMS-230">
          <mxGeometry x="35.625" y="51.29142857142857" width="23.75" height="21.37142857142857" as="geometry" />
        </mxCell>
        <mxCell id="YCWpmOM7ewB6S8Fy5KMS-243" value="3" style="strokeWidth=1;shadow=0;dashed=0;align=center;html=1;shape=mxgraph.mockup.forms.rrect;rSize=0;strokeColor=#999999;fontColor=#999999;" vertex="1" parent="YCWpmOM7ewB6S8Fy5KMS-230">
          <mxGeometry x="59.375" y="51.29142857142857" width="23.75" height="21.37142857142857" as="geometry" />
        </mxCell>
        <mxCell id="YCWpmOM7ewB6S8Fy5KMS-244" value="4" style="strokeWidth=1;shadow=0;dashed=0;align=center;html=1;shape=mxgraph.mockup.forms.rrect;rSize=0;strokeColor=#999999;fontColor=#999999;" vertex="1" parent="YCWpmOM7ewB6S8Fy5KMS-230">
          <mxGeometry x="83.125" y="51.29142857142857" width="23.75" height="21.37142857142857" as="geometry" />
        </mxCell>
        <mxCell id="YCWpmOM7ewB6S8Fy5KMS-245" value="5" style="strokeWidth=1;shadow=0;dashed=0;align=center;html=1;shape=mxgraph.mockup.forms.rrect;rSize=0;strokeColor=#999999;fontColor=#999999;" vertex="1" parent="YCWpmOM7ewB6S8Fy5KMS-230">
          <mxGeometry x="106.875" y="51.29142857142857" width="23.75" height="21.37142857142857" as="geometry" />
        </mxCell>
        <mxCell id="YCWpmOM7ewB6S8Fy5KMS-246" value="6" style="strokeWidth=1;shadow=0;dashed=0;align=center;html=1;shape=mxgraph.mockup.forms.rrect;rSize=0;strokeColor=#999999;fontColor=#999999;" vertex="1" parent="YCWpmOM7ewB6S8Fy5KMS-230">
          <mxGeometry x="130.625" y="51.29142857142857" width="23.75" height="21.37142857142857" as="geometry" />
        </mxCell>
        <mxCell id="YCWpmOM7ewB6S8Fy5KMS-247" value="7" style="strokeWidth=1;shadow=0;dashed=0;align=center;html=1;shape=mxgraph.mockup.forms.rrect;rSize=0;strokeColor=#999999;fontColor=#999999;" vertex="1" parent="YCWpmOM7ewB6S8Fy5KMS-230">
          <mxGeometry x="154.375" y="51.29142857142857" width="23.75" height="21.37142857142857" as="geometry" />
        </mxCell>
        <mxCell id="YCWpmOM7ewB6S8Fy5KMS-248" value="8" style="strokeWidth=1;shadow=0;dashed=0;align=center;html=1;shape=mxgraph.mockup.forms.rrect;rSize=0;strokeColor=#999999;fontColor=#999999;" vertex="1" parent="YCWpmOM7ewB6S8Fy5KMS-230">
          <mxGeometry x="11.875" y="72.66285714285713" width="23.75" height="21.37142857142857" as="geometry" />
        </mxCell>
        <mxCell id="YCWpmOM7ewB6S8Fy5KMS-249" value="9" style="strokeWidth=1;shadow=0;dashed=0;align=center;html=1;shape=mxgraph.mockup.forms.rrect;rSize=0;strokeColor=#999999;fontColor=#999999;" vertex="1" parent="YCWpmOM7ewB6S8Fy5KMS-230">
          <mxGeometry x="35.625" y="72.66285714285713" width="23.75" height="21.37142857142857" as="geometry" />
        </mxCell>
        <mxCell id="YCWpmOM7ewB6S8Fy5KMS-250" value="10" style="strokeWidth=1;shadow=0;dashed=0;align=center;html=1;shape=mxgraph.mockup.forms.rrect;rSize=0;strokeColor=#999999;fontColor=#999999;" vertex="1" parent="YCWpmOM7ewB6S8Fy5KMS-230">
          <mxGeometry x="59.375" y="72.66285714285713" width="23.75" height="21.37142857142857" as="geometry" />
        </mxCell>
        <mxCell id="YCWpmOM7ewB6S8Fy5KMS-251" value="11" style="strokeWidth=1;shadow=0;dashed=0;align=center;html=1;shape=mxgraph.mockup.forms.rrect;rSize=0;strokeColor=#999999;fontColor=#999999;" vertex="1" parent="YCWpmOM7ewB6S8Fy5KMS-230">
          <mxGeometry x="83.125" y="72.66285714285713" width="23.75" height="21.37142857142857" as="geometry" />
        </mxCell>
        <mxCell id="YCWpmOM7ewB6S8Fy5KMS-252" value="12" style="strokeWidth=1;shadow=0;dashed=0;align=center;html=1;shape=mxgraph.mockup.forms.rrect;rSize=0;strokeColor=#999999;fontColor=#999999;" vertex="1" parent="YCWpmOM7ewB6S8Fy5KMS-230">
          <mxGeometry x="106.875" y="72.66285714285713" width="23.75" height="21.37142857142857" as="geometry" />
        </mxCell>
        <mxCell id="YCWpmOM7ewB6S8Fy5KMS-253" value="13" style="strokeWidth=1;shadow=0;dashed=0;align=center;html=1;shape=mxgraph.mockup.forms.rrect;rSize=0;strokeColor=#999999;fontColor=#999999;" vertex="1" parent="YCWpmOM7ewB6S8Fy5KMS-230">
          <mxGeometry x="130.625" y="72.66285714285713" width="23.75" height="21.37142857142857" as="geometry" />
        </mxCell>
        <mxCell id="YCWpmOM7ewB6S8Fy5KMS-254" value="14" style="strokeWidth=1;shadow=0;dashed=0;align=center;html=1;shape=mxgraph.mockup.forms.rrect;rSize=0;strokeColor=#999999;fontColor=#999999;" vertex="1" parent="YCWpmOM7ewB6S8Fy5KMS-230">
          <mxGeometry x="154.375" y="72.66285714285713" width="23.75" height="21.37142857142857" as="geometry" />
        </mxCell>
        <mxCell id="YCWpmOM7ewB6S8Fy5KMS-255" value="15" style="strokeWidth=1;shadow=0;dashed=0;align=center;html=1;shape=mxgraph.mockup.forms.rrect;rSize=0;strokeColor=#999999;fontColor=#999999;" vertex="1" parent="YCWpmOM7ewB6S8Fy5KMS-230">
          <mxGeometry x="11.875" y="94.03428571428572" width="23.75" height="21.37142857142857" as="geometry" />
        </mxCell>
        <mxCell id="YCWpmOM7ewB6S8Fy5KMS-256" value="16" style="strokeWidth=1;shadow=0;dashed=0;align=center;html=1;shape=mxgraph.mockup.forms.rrect;rSize=0;strokeColor=#999999;fontColor=#999999;" vertex="1" parent="YCWpmOM7ewB6S8Fy5KMS-230">
          <mxGeometry x="35.625" y="94.03428571428572" width="23.75" height="21.37142857142857" as="geometry" />
        </mxCell>
        <mxCell id="YCWpmOM7ewB6S8Fy5KMS-257" value="17" style="strokeWidth=1;shadow=0;dashed=0;align=center;html=1;shape=mxgraph.mockup.forms.rrect;rSize=0;strokeColor=#999999;fontColor=#999999;" vertex="1" parent="YCWpmOM7ewB6S8Fy5KMS-230">
          <mxGeometry x="59.375" y="94.03428571428572" width="23.75" height="21.37142857142857" as="geometry" />
        </mxCell>
        <mxCell id="YCWpmOM7ewB6S8Fy5KMS-258" value="18" style="strokeWidth=1;shadow=0;dashed=0;align=center;html=1;shape=mxgraph.mockup.forms.rrect;rSize=0;strokeColor=#999999;fontColor=#999999;" vertex="1" parent="YCWpmOM7ewB6S8Fy5KMS-230">
          <mxGeometry x="83.125" y="94.03428571428572" width="23.75" height="21.37142857142857" as="geometry" />
        </mxCell>
        <mxCell id="YCWpmOM7ewB6S8Fy5KMS-259" value="19" style="strokeWidth=1;shadow=0;dashed=0;align=center;html=1;shape=mxgraph.mockup.forms.rrect;rSize=0;strokeColor=#999999;fontColor=#999999;" vertex="1" parent="YCWpmOM7ewB6S8Fy5KMS-230">
          <mxGeometry x="106.875" y="94.03428571428572" width="23.75" height="21.37142857142857" as="geometry" />
        </mxCell>
        <mxCell id="YCWpmOM7ewB6S8Fy5KMS-260" value="20" style="strokeWidth=1;shadow=0;dashed=0;align=center;html=1;shape=mxgraph.mockup.forms.rrect;rSize=0;strokeColor=#999999;fontColor=#999999;" vertex="1" parent="YCWpmOM7ewB6S8Fy5KMS-230">
          <mxGeometry x="130.625" y="94.03428571428572" width="23.75" height="21.37142857142857" as="geometry" />
        </mxCell>
        <mxCell id="YCWpmOM7ewB6S8Fy5KMS-261" value="21" style="strokeWidth=1;shadow=0;dashed=0;align=center;html=1;shape=mxgraph.mockup.forms.rrect;rSize=0;strokeColor=#999999;fontColor=#999999;" vertex="1" parent="YCWpmOM7ewB6S8Fy5KMS-230">
          <mxGeometry x="154.375" y="94.03428571428572" width="23.75" height="21.37142857142857" as="geometry" />
        </mxCell>
        <mxCell id="YCWpmOM7ewB6S8Fy5KMS-262" value="22" style="strokeWidth=1;shadow=0;dashed=0;align=center;html=1;shape=mxgraph.mockup.forms.rrect;rSize=0;strokeColor=#999999;fontColor=#999999;" vertex="1" parent="YCWpmOM7ewB6S8Fy5KMS-230">
          <mxGeometry x="11.875" y="115.40571428571428" width="23.75" height="21.37142857142857" as="geometry" />
        </mxCell>
        <mxCell id="YCWpmOM7ewB6S8Fy5KMS-263" value="23" style="strokeWidth=1;shadow=0;dashed=0;align=center;html=1;shape=mxgraph.mockup.forms.rrect;rSize=0;strokeColor=#999999;fontColor=#999999;" vertex="1" parent="YCWpmOM7ewB6S8Fy5KMS-230">
          <mxGeometry x="35.625" y="115.40571428571428" width="23.75" height="21.37142857142857" as="geometry" />
        </mxCell>
        <mxCell id="YCWpmOM7ewB6S8Fy5KMS-264" value="25" style="strokeWidth=1;shadow=0;dashed=0;align=center;html=1;shape=mxgraph.mockup.forms.rrect;rSize=0;strokeColor=#999999;fontColor=#999999;" vertex="1" parent="YCWpmOM7ewB6S8Fy5KMS-230">
          <mxGeometry x="83.125" y="115.40571428571428" width="23.75" height="21.37142857142857" as="geometry" />
        </mxCell>
        <mxCell id="YCWpmOM7ewB6S8Fy5KMS-265" value="26" style="strokeWidth=1;shadow=0;dashed=0;align=center;html=1;shape=mxgraph.mockup.forms.rrect;rSize=0;strokeColor=#999999;fontColor=#999999;" vertex="1" parent="YCWpmOM7ewB6S8Fy5KMS-230">
          <mxGeometry x="106.875" y="115.40571428571428" width="23.75" height="21.37142857142857" as="geometry" />
        </mxCell>
        <mxCell id="YCWpmOM7ewB6S8Fy5KMS-266" value="27" style="strokeWidth=1;shadow=0;dashed=0;align=center;html=1;shape=mxgraph.mockup.forms.rrect;rSize=0;strokeColor=#999999;fontColor=#999999;" vertex="1" parent="YCWpmOM7ewB6S8Fy5KMS-230">
          <mxGeometry x="130.625" y="115.40571428571428" width="23.75" height="21.37142857142857" as="geometry" />
        </mxCell>
        <mxCell id="YCWpmOM7ewB6S8Fy5KMS-267" value="28" style="strokeWidth=1;shadow=0;dashed=0;align=center;html=1;shape=mxgraph.mockup.forms.rrect;rSize=0;strokeColor=#999999;fontColor=#999999;" vertex="1" parent="YCWpmOM7ewB6S8Fy5KMS-230">
          <mxGeometry x="154.375" y="115.40571428571428" width="23.75" height="21.37142857142857" as="geometry" />
        </mxCell>
        <mxCell id="YCWpmOM7ewB6S8Fy5KMS-268" value="29" style="strokeWidth=1;shadow=0;dashed=0;align=center;html=1;shape=mxgraph.mockup.forms.rrect;rSize=0;strokeColor=#999999;fontColor=#999999;" vertex="1" parent="YCWpmOM7ewB6S8Fy5KMS-230">
          <mxGeometry x="11.875" y="136.77714285714285" width="23.75" height="21.37142857142857" as="geometry" />
        </mxCell>
        <mxCell id="YCWpmOM7ewB6S8Fy5KMS-269" value="30" style="strokeWidth=1;shadow=0;dashed=0;align=center;html=1;shape=mxgraph.mockup.forms.rrect;rSize=0;strokeColor=#999999;fontColor=#999999;" vertex="1" parent="YCWpmOM7ewB6S8Fy5KMS-230">
          <mxGeometry x="35.625" y="136.77714285714285" width="23.75" height="21.37142857142857" as="geometry" />
        </mxCell>
        <mxCell id="YCWpmOM7ewB6S8Fy5KMS-270" value="31" style="strokeWidth=1;shadow=0;dashed=0;align=center;html=1;shape=mxgraph.mockup.forms.rrect;rSize=0;strokeColor=#999999;fontColor=#999999;" vertex="1" parent="YCWpmOM7ewB6S8Fy5KMS-230">
          <mxGeometry x="59.375" y="136.77714285714285" width="23.75" height="21.37142857142857" as="geometry" />
        </mxCell>
        <mxCell id="YCWpmOM7ewB6S8Fy5KMS-271" value="1" style="strokeWidth=1;shadow=0;dashed=0;align=center;html=1;shape=mxgraph.mockup.forms.rrect;rSize=0;strokeColor=#999999;fontColor=#999999;fillColor=#ddeeff;" vertex="1" parent="YCWpmOM7ewB6S8Fy5KMS-230">
          <mxGeometry x="83.125" y="136.77714285714285" width="23.75" height="21.37142857142857" as="geometry" />
        </mxCell>
        <mxCell id="YCWpmOM7ewB6S8Fy5KMS-272" value="2" style="strokeWidth=1;shadow=0;dashed=0;align=center;html=1;shape=mxgraph.mockup.forms.rrect;rSize=0;strokeColor=#999999;fontColor=#999999;fillColor=#ddeeff;" vertex="1" parent="YCWpmOM7ewB6S8Fy5KMS-230">
          <mxGeometry x="106.875" y="136.77714285714285" width="23.75" height="21.37142857142857" as="geometry" />
        </mxCell>
        <mxCell id="YCWpmOM7ewB6S8Fy5KMS-273" value="3" style="strokeWidth=1;shadow=0;dashed=0;align=center;html=1;shape=mxgraph.mockup.forms.rrect;rSize=0;strokeColor=#999999;fontColor=#999999;fillColor=#ddeeff;" vertex="1" parent="YCWpmOM7ewB6S8Fy5KMS-230">
          <mxGeometry x="130.625" y="136.77714285714285" width="23.75" height="21.37142857142857" as="geometry" />
        </mxCell>
        <mxCell id="YCWpmOM7ewB6S8Fy5KMS-274" value="4" style="strokeWidth=1;shadow=0;dashed=0;align=center;html=1;shape=mxgraph.mockup.forms.rrect;rSize=0;strokeColor=#999999;fontColor=#999999;fillColor=#ddeeff;" vertex="1" parent="YCWpmOM7ewB6S8Fy5KMS-230">
          <mxGeometry x="154.375" y="136.77714285714285" width="23.75" height="21.37142857142857" as="geometry" />
        </mxCell>
        <mxCell id="YCWpmOM7ewB6S8Fy5KMS-275" value="5" style="strokeWidth=1;shadow=0;dashed=0;align=center;html=1;shape=mxgraph.mockup.forms.rrect;rSize=0;strokeColor=#999999;fontColor=#999999;fillColor=#ddeeff;" vertex="1" parent="YCWpmOM7ewB6S8Fy5KMS-230">
          <mxGeometry x="11.875" y="158.14857142857142" width="23.75" height="21.37142857142857" as="geometry" />
        </mxCell>
        <mxCell id="YCWpmOM7ewB6S8Fy5KMS-276" value="6" style="strokeWidth=1;shadow=0;dashed=0;align=center;html=1;shape=mxgraph.mockup.forms.rrect;rSize=0;strokeColor=#999999;fontColor=#999999;fillColor=#ddeeff;" vertex="1" parent="YCWpmOM7ewB6S8Fy5KMS-230">
          <mxGeometry x="35.625" y="158.14857142857142" width="23.75" height="21.37142857142857" as="geometry" />
        </mxCell>
        <mxCell id="YCWpmOM7ewB6S8Fy5KMS-277" value="7" style="strokeWidth=1;shadow=0;dashed=0;align=center;html=1;shape=mxgraph.mockup.forms.rrect;rSize=0;strokeColor=#999999;fontColor=#999999;fillColor=#ddeeff;" vertex="1" parent="YCWpmOM7ewB6S8Fy5KMS-230">
          <mxGeometry x="59.375" y="158.14857142857142" width="23.75" height="21.37142857142857" as="geometry" />
        </mxCell>
        <mxCell id="YCWpmOM7ewB6S8Fy5KMS-278" value="8" style="strokeWidth=1;shadow=0;dashed=0;align=center;html=1;shape=mxgraph.mockup.forms.rrect;rSize=0;strokeColor=#999999;fontColor=#999999;fillColor=#ddeeff;" vertex="1" parent="YCWpmOM7ewB6S8Fy5KMS-230">
          <mxGeometry x="83.125" y="158.14857142857142" width="23.75" height="21.37142857142857" as="geometry" />
        </mxCell>
        <mxCell id="YCWpmOM7ewB6S8Fy5KMS-279" value="9" style="strokeWidth=1;shadow=0;dashed=0;align=center;html=1;shape=mxgraph.mockup.forms.rrect;rSize=0;strokeColor=#999999;fontColor=#999999;fillColor=#ddeeff;" vertex="1" parent="YCWpmOM7ewB6S8Fy5KMS-230">
          <mxGeometry x="106.875" y="158.14857142857142" width="23.75" height="21.37142857142857" as="geometry" />
        </mxCell>
        <mxCell id="YCWpmOM7ewB6S8Fy5KMS-280" value="10" style="strokeWidth=1;shadow=0;dashed=0;align=center;html=1;shape=mxgraph.mockup.forms.rrect;rSize=0;strokeColor=#999999;fontColor=#999999;fillColor=#ddeeff;" vertex="1" parent="YCWpmOM7ewB6S8Fy5KMS-230">
          <mxGeometry x="130.625" y="158.14857142857142" width="23.75" height="21.37142857142857" as="geometry" />
        </mxCell>
        <mxCell id="YCWpmOM7ewB6S8Fy5KMS-281" value="11" style="strokeWidth=1;shadow=0;dashed=0;align=center;html=1;shape=mxgraph.mockup.forms.rrect;rSize=0;strokeColor=#999999;fontColor=#999999;fillColor=#ddeeff;" vertex="1" parent="YCWpmOM7ewB6S8Fy5KMS-230">
          <mxGeometry x="154.375" y="158.14857142857142" width="23.75" height="21.37142857142857" as="geometry" />
        </mxCell>
        <mxCell id="YCWpmOM7ewB6S8Fy5KMS-282" value="24" style="strokeWidth=1;shadow=0;dashed=0;align=center;html=1;shape=mxgraph.mockup.forms.rrect;rSize=0;strokeColor=#ff0000;fontColor=#ffffff;strokeWidth=2;fillColor=#008cff;" vertex="1" parent="YCWpmOM7ewB6S8Fy5KMS-230">
          <mxGeometry x="59.375" y="115.40571428571428" width="23.75" height="21.37142857142857" as="geometry" />
        </mxCell>
        <mxCell id="YCWpmOM7ewB6S8Fy5KMS-283" value="Events" style="swimlane;whiteSpace=wrap;html=1;" vertex="1" parent="1">
          <mxGeometry x="390" y="620" width="200" height="200" as="geometry" />
        </mxCell>
        <mxCell id="YCWpmOM7ewB6S8Fy5KMS-284" value="database" style="shape=cylinder3;whiteSpace=wrap;html=1;boundedLbl=1;backgroundOutline=1;size=15;" vertex="1" parent="YCWpmOM7ewB6S8Fy5KMS-283">
          <mxGeometry x="10" y="110" width="60" height="70" as="geometry" />
        </mxCell>
        <mxCell id="YCWpmOM7ewB6S8Fy5KMS-285" style="edgeStyle=orthogonalEdgeStyle;rounded=0;orthogonalLoop=1;jettySize=auto;html=1;entryX=1;entryY=1;entryDx=0;entryDy=-15;entryPerimeter=0;exitX=0.429;exitY=-0.019;exitDx=0;exitDy=0;exitPerimeter=0;" edge="1" parent="1" source="YCWpmOM7ewB6S8Fy5KMS-230">
          <mxGeometry relative="1" as="geometry">
            <mxPoint x="483.92999999999984" y="439.029" as="sourcePoint" />
            <mxPoint x="460" y="45" as="targetPoint" />
            <Array as="points">
              <mxPoint x="731" y="320" />
              <mxPoint x="681" y="320" />
              <mxPoint x="681" y="50" />
              <mxPoint x="460" y="50" />
            </Array>
          </mxGeometry>
        </mxCell>
        <mxCell id="YCWpmOM7ewB6S8Fy5KMS-286" value="7" style="edgeLabel;html=1;align=center;verticalAlign=middle;resizable=0;points=[];" vertex="1" connectable="0" parent="YCWpmOM7ewB6S8Fy5KMS-285">
          <mxGeometry x="-0.3823" y="-1" relative="1" as="geometry">
            <mxPoint as="offset" />
          </mxGeometry>
        </mxCell>
        <mxCell id="YCWpmOM7ewB6S8Fy5KMS-287" style="edgeStyle=orthogonalEdgeStyle;rounded=0;orthogonalLoop=1;jettySize=auto;html=1;entryX=0.782;entryY=-0.002;entryDx=0;entryDy=0;entryPerimeter=0;" edge="1" parent="1" source="YCWpmOM7ewB6S8Fy5KMS-294" target="YCWpmOM7ewB6S8Fy5KMS-230">
          <mxGeometry relative="1" as="geometry">
            <mxPoint x="820" y="310" as="targetPoint" />
            <Array as="points">
              <mxPoint x="799" y="190" />
              <mxPoint x="799" y="190" />
            </Array>
          </mxGeometry>
        </mxCell>
        <mxCell id="YCWpmOM7ewB6S8Fy5KMS-288" value="Confirm member acces" style="edgeLabel;html=1;align=center;verticalAlign=middle;resizable=0;points=[];" vertex="1" connectable="0" parent="YCWpmOM7ewB6S8Fy5KMS-287">
          <mxGeometry x="0.2993" y="1" relative="1" as="geometry">
            <mxPoint x="-117" y="-88" as="offset" />
          </mxGeometry>
        </mxCell>
        <mxCell id="YCWpmOM7ewB6S8Fy5KMS-289" value="6" style="edgeLabel;html=1;align=center;verticalAlign=middle;resizable=0;points=[];" vertex="1" connectable="0" parent="YCWpmOM7ewB6S8Fy5KMS-287">
          <mxGeometry x="-0.2495" y="-2" relative="1" as="geometry">
            <mxPoint as="offset" />
          </mxGeometry>
        </mxCell>
        <mxCell id="YCWpmOM7ewB6S8Fy5KMS-290" style="edgeStyle=orthogonalEdgeStyle;rounded=0;orthogonalLoop=1;jettySize=auto;html=1;entryX=-0.005;entryY=0.781;entryDx=0;entryDy=0;entryPerimeter=0;" edge="1" parent="1" source="YCWpmOM7ewB6S8Fy5KMS-283" target="YCWpmOM7ewB6S8Fy5KMS-230">
          <mxGeometry relative="1" as="geometry">
            <Array as="points">
              <mxPoint x="490" y="496" />
            </Array>
          </mxGeometry>
        </mxCell>
        <mxCell id="YCWpmOM7ewB6S8Fy5KMS-291" value="Notify of event update" style="edgeLabel;html=1;align=center;verticalAlign=middle;resizable=0;points=[];" vertex="1" connectable="0" parent="YCWpmOM7ewB6S8Fy5KMS-290">
          <mxGeometry x="-0.3564" y="-2" relative="1" as="geometry">
            <mxPoint as="offset" />
          </mxGeometry>
        </mxCell>
        <mxCell id="YCWpmOM7ewB6S8Fy5KMS-292" value="9" style="edgeLabel;html=1;align=center;verticalAlign=middle;resizable=0;points=[];" vertex="1" connectable="0" parent="YCWpmOM7ewB6S8Fy5KMS-290">
          <mxGeometry x="0.2272" relative="1" as="geometry">
            <mxPoint as="offset" />
          </mxGeometry>
        </mxCell>
        <mxCell id="YCWpmOM7ewB6S8Fy5KMS-293" value="" style="edgeStyle=orthogonalEdgeStyle;rounded=0;orthogonalLoop=1;jettySize=auto;html=1;entryX=0.568;entryY=0.008;entryDx=0;entryDy=0;entryPerimeter=0;" edge="1" parent="1" target="YCWpmOM7ewB6S8Fy5KMS-294">
          <mxGeometry relative="1" as="geometry">
            <mxPoint x="460" y="20" as="sourcePoint" />
            <mxPoint x="708" y="351" as="targetPoint" />
          </mxGeometry>
        </mxCell>
        <mxCell id="YCWpmOM7ewB6S8Fy5KMS-294" value="Fetch member verification" style="text;html=1;align=center;verticalAlign=middle;resizable=0;points=[];autosize=1;strokeColor=none;fillColor=none;" vertex="1" parent="1">
          <mxGeometry x="700" y="50" width="160" height="30" as="geometry" />
        </mxCell>
        <mxCell id="YCWpmOM7ewB6S8Fy5KMS-295" style="edgeStyle=orthogonalEdgeStyle;rounded=0;orthogonalLoop=1;jettySize=auto;html=1;" edge="1" parent="1">
          <mxGeometry relative="1" as="geometry">
            <mxPoint x="650" y="455" as="sourcePoint" />
            <mxPoint x="260" y="340" as="targetPoint" />
          </mxGeometry>
        </mxCell>
        <mxCell id="YCWpmOM7ewB6S8Fy5KMS-296" value="View calendar" style="edgeLabel;html=1;align=center;verticalAlign=middle;resizable=0;points=[];" vertex="1" connectable="0" parent="YCWpmOM7ewB6S8Fy5KMS-295">
          <mxGeometry x="-0.2033" y="-5" relative="1" as="geometry">
            <mxPoint as="offset" />
          </mxGeometry>
        </mxCell>
        <mxCell id="YCWpmOM7ewB6S8Fy5KMS-297" value="10" style="edgeLabel;html=1;align=center;verticalAlign=middle;resizable=0;points=[];" vertex="1" connectable="0" parent="YCWpmOM7ewB6S8Fy5KMS-295">
          <mxGeometry x="-0.6005" y="-2" relative="1" as="geometry">
            <mxPoint as="offset" />
          </mxGeometry>
        </mxCell>
        <mxCell id="YCWpmOM7ewB6S8Fy5KMS-298" style="edgeStyle=orthogonalEdgeStyle;rounded=0;orthogonalLoop=1;jettySize=auto;html=1;" edge="1" parent="1" source="YCWpmOM7ewB6S8Fy5KMS-301">
          <mxGeometry relative="1" as="geometry">
            <mxPoint x="800" y="540" as="targetPoint" />
            <Array as="points">
              <mxPoint x="801" y="910" />
              <mxPoint x="801" y="540" />
            </Array>
          </mxGeometry>
        </mxCell>
        <mxCell id="YCWpmOM7ewB6S8Fy5KMS-299" value="Submit event creation requestxt" style="edgeLabel;html=1;align=center;verticalAlign=middle;resizable=0;points=[];" vertex="1" connectable="0" parent="YCWpmOM7ewB6S8Fy5KMS-298">
          <mxGeometry x="-0.3123" relative="1" as="geometry">
            <mxPoint as="offset" />
          </mxGeometry>
        </mxCell>
        <mxCell id="YCWpmOM7ewB6S8Fy5KMS-300" value="2" style="edgeLabel;html=1;align=center;verticalAlign=middle;resizable=0;points=[];" vertex="1" connectable="0" parent="YCWpmOM7ewB6S8Fy5KMS-298">
          <mxGeometry x="-0.6402" y="1" relative="1" as="geometry">
            <mxPoint x="-1" as="offset" />
          </mxGeometry>
        </mxCell>
        <mxCell id="YCWpmOM7ewB6S8Fy5KMS-301" value="&lt;p style=&quot;margin:0px;margin-top:4px;text-align:center;&quot;&gt;&lt;font style=&quot;font-size: 8px;&quot;&gt;Event Form&lt;br&gt;&lt;/font&gt;&lt;/p&gt;&lt;hr size=&quot;1&quot; style=&quot;border-style:solid;&quot;&gt;&lt;p style=&quot;margin:0px;margin-left:4px;&quot;&gt;&lt;font style=&quot;font-size: 8px;&quot;&gt;&lt;br&gt;&lt;/font&gt;&lt;/p&gt;&lt;p style=&quot;margin: 0px 0px 0px 4px; font-size: 8px;&quot;&gt;&lt;span id=&quot;docs-internal-guid-9ca0e478-7fff-3f2b-c6fa-af92b84553c8&quot;&gt;&lt;span style=&quot;font-family: Arial, sans-serif; color: rgb(29, 28, 29); background-color: transparent; font-variant-numeric: normal; font-variant-east-asian: normal; font-variant-alternates: normal; font-variant-position: normal; vertical-align: baseline; white-space-collapse: preserve;&quot;&gt;&lt;font style=&quot;font-size: 8px;&quot;&gt;Host, &lt;/font&gt;&lt;/span&gt;&lt;/span&gt;&lt;/p&gt;&lt;p style=&quot;margin: 0px 0px 0px 4px; font-size: 8px;&quot;&gt;&lt;span&gt;&lt;span style=&quot;font-family: Arial, sans-serif; color: rgb(29, 28, 29); background-color: transparent; font-variant-numeric: normal; font-variant-east-asian: normal; font-variant-alternates: normal; font-variant-position: normal; vertical-align: baseline; white-space-collapse: preserve;&quot;&gt;&lt;font style=&quot;font-size: 8px;&quot;&gt;Name, &lt;/font&gt;&lt;/span&gt;&lt;/span&gt;&lt;/p&gt;&lt;p style=&quot;margin: 0px 0px 0px 4px; font-size: 8px;&quot;&gt;&lt;span&gt;&lt;span style=&quot;font-family: Arial, sans-serif; color: rgb(29, 28, 29); background-color: transparent; font-variant-numeric: normal; font-variant-east-asian: normal; font-variant-alternates: normal; font-variant-position: normal; vertical-align: baseline; white-space-collapse: preserve;&quot;&gt;&lt;font style=&quot;font-size: 8px;&quot;&gt;Duration, &lt;/font&gt;&lt;/span&gt;&lt;/span&gt;&lt;/p&gt;&lt;p style=&quot;margin: 0px 0px 0px 4px; font-size: 8px;&quot;&gt;&lt;span&gt;&lt;span style=&quot;font-family: Arial, sans-serif; color: rgb(29, 28, 29); background-color: transparent; font-variant-numeric: normal; font-variant-east-asian: normal; font-variant-alternates: normal; font-variant-position: normal; vertical-align: baseline; white-space-collapse: preserve;&quot;&gt;&lt;font style=&quot;font-size: 8px;&quot;&gt;Location, &lt;/font&gt;&lt;/span&gt;&lt;/span&gt;&lt;/p&gt;&lt;p style=&quot;margin: 0px 0px 0px 4px; font-size: 8px;&quot;&gt;&lt;font style=&quot;font-size: 8px;&quot;&gt;&lt;span&gt;&lt;span style=&quot;font-family: Arial, sans-serif; color: rgb(29, 28, 29); background-color: transparent; font-variant-numeric: normal; font-variant-east-asian: normal; font-variant-alternates: normal; font-variant-position: normal; vertical-align: baseline; white-space-collapse: preserve;&quot;&gt;Schedule &lt;/span&gt;&lt;/span&gt;&lt;/font&gt;&lt;/p&gt;&lt;p style=&quot;margin: 0px 0px 0px 4px; font-size: 8px;&quot;&gt;&lt;font style=&quot;font-size: 8px;&quot;&gt;&lt;span style=&quot;background-color: initial;&quot;&gt;type&lt;/span&gt;&amp;nbsp;(&lt;span style=&quot;background-color: initial;&quot;&gt;One-to-One, Group, Collective, Round-Robin&lt;/span&gt;&lt;/font&gt;&lt;/p&gt;&lt;div style=&quot;font-size: 8px;&quot;&gt;&lt;br&gt;&lt;/div&gt;&lt;div style=&quot;font-size: 8px;&quot;&gt;&lt;br&gt;&lt;/div&gt;" style="verticalAlign=top;align=left;overflow=fill;html=1;whiteSpace=wrap;" vertex="1" parent="1">
          <mxGeometry x="160" y="860" width="190" height="140" as="geometry" />
        </mxCell>
        <mxCell id="YCWpmOM7ewB6S8Fy5KMS-302" style="edgeStyle=orthogonalEdgeStyle;rounded=0;orthogonalLoop=1;jettySize=auto;html=1;exitX=0.565;exitY=0.986;exitDx=0;exitDy=0;exitPerimeter=0;" edge="1" parent="1" source="YCWpmOM7ewB6S8Fy5KMS-230">
          <mxGeometry relative="1" as="geometry">
            <mxPoint x="590" y="800" as="targetPoint" />
            <Array as="points">
              <mxPoint x="757" y="800" />
            </Array>
          </mxGeometry>
        </mxCell>
        <mxCell id="YCWpmOM7ewB6S8Fy5KMS-303" value="Save event (property or personal)" style="edgeLabel;html=1;align=center;verticalAlign=middle;resizable=0;points=[];" vertex="1" connectable="0" parent="YCWpmOM7ewB6S8Fy5KMS-302">
          <mxGeometry x="-0.3443" y="-2" relative="1" as="geometry">
            <mxPoint x="-45" y="112" as="offset" />
          </mxGeometry>
        </mxCell>
        <mxCell id="YCWpmOM7ewB6S8Fy5KMS-304" value="3" style="edgeLabel;html=1;align=center;verticalAlign=middle;resizable=0;points=[];" vertex="1" connectable="0" parent="YCWpmOM7ewB6S8Fy5KMS-302">
          <mxGeometry x="-0.4742" y="-2" relative="1" as="geometry">
            <mxPoint y="-1" as="offset" />
          </mxGeometry>
        </mxCell>
        <mxCell id="YCWpmOM7ewB6S8Fy5KMS-305" style="edgeStyle=orthogonalEdgeStyle;rounded=0;orthogonalLoop=1;jettySize=auto;html=1;entryX=0.5;entryY=0;entryDx=0;entryDy=0;entryPerimeter=0;" edge="1" parent="1" target="YCWpmOM7ewB6S8Fy5KMS-224">
          <mxGeometry relative="1" as="geometry">
            <mxPoint x="400" y="20" as="sourcePoint" />
          </mxGeometry>
        </mxCell>
        <mxCell id="YCWpmOM7ewB6S8Fy5KMS-306" value="&lt;div&gt;Show event&amp;nbsp; details&lt;/div&gt;" style="edgeLabel;html=1;align=center;verticalAlign=middle;resizable=0;points=[];" vertex="1" connectable="0" parent="YCWpmOM7ewB6S8Fy5KMS-305">
          <mxGeometry x="-0.4526" y="-2" relative="1" as="geometry">
            <mxPoint as="offset" />
          </mxGeometry>
        </mxCell>
        <mxCell id="YCWpmOM7ewB6S8Fy5KMS-307" value="4" style="edgeLabel;html=1;align=center;verticalAlign=middle;resizable=0;points=[];" vertex="1" connectable="0" parent="YCWpmOM7ewB6S8Fy5KMS-305">
          <mxGeometry x="-0.7367" y="1" relative="1" as="geometry">
            <mxPoint as="offset" />
          </mxGeometry>
        </mxCell>
        <mxCell id="YCWpmOM7ewB6S8Fy5KMS-308" style="edgeStyle=orthogonalEdgeStyle;rounded=0;orthogonalLoop=1;jettySize=auto;html=1;" edge="1" parent="1" source="YCWpmOM7ewB6S8Fy5KMS-313">
          <mxGeometry relative="1" as="geometry">
            <mxPoint x="220" y="340" as="targetPoint" />
            <Array as="points">
              <mxPoint x="1125" y="1050" />
              <mxPoint x="140" y="1050" />
              <mxPoint x="140" y="360" />
              <mxPoint x="220" y="360" />
            </Array>
          </mxGeometry>
        </mxCell>
        <mxCell id="YCWpmOM7ewB6S8Fy5KMS-309" value="Notify of new booking" style="edgeLabel;html=1;align=center;verticalAlign=middle;resizable=0;points=[];" vertex="1" connectable="0" parent="YCWpmOM7ewB6S8Fy5KMS-308">
          <mxGeometry x="-0.3406" y="-4" relative="1" as="geometry">
            <mxPoint x="-1" as="offset" />
          </mxGeometry>
        </mxCell>
        <mxCell id="YCWpmOM7ewB6S8Fy5KMS-310" value="18" style="edgeLabel;html=1;align=center;verticalAlign=middle;resizable=0;points=[];" vertex="1" connectable="0" parent="YCWpmOM7ewB6S8Fy5KMS-308">
          <mxGeometry x="-0.4531" y="-3" relative="1" as="geometry">
            <mxPoint x="-1" y="1" as="offset" />
          </mxGeometry>
        </mxCell>
        <mxCell id="YCWpmOM7ewB6S8Fy5KMS-311" style="edgeStyle=orthogonalEdgeStyle;rounded=0;orthogonalLoop=1;jettySize=auto;html=1;entryX=0.5;entryY=0;entryDx=0;entryDy=0;" edge="1" parent="1" source="YCWpmOM7ewB6S8Fy5KMS-313" target="YCWpmOM7ewB6S8Fy5KMS-361">
          <mxGeometry relative="1" as="geometry" />
        </mxCell>
        <mxCell id="YCWpmOM7ewB6S8Fy5KMS-312" value="&lt;span id=&quot;docs-internal-guid-14ee0720-7fff-94c4-e22b-e3c3a6a25dc9&quot;&gt;&lt;span style=&quot;font-size: 11.5pt; font-family: Arial, sans-serif; color: rgb(29, 28, 29); background-color: transparent; font-variant-numeric: normal; font-variant-east-asian: normal; font-variant-alternates: normal; font-variant-position: normal; vertical-align: baseline; white-space: pre-wrap;&quot;&gt;Integration with Video Conferencing Tools&lt;/span&gt;&lt;/span&gt;" style="edgeLabel;html=1;align=center;verticalAlign=middle;resizable=0;points=[];" vertex="1" connectable="0" parent="YCWpmOM7ewB6S8Fy5KMS-311">
          <mxGeometry x="-0.0533" y="1" relative="1" as="geometry">
            <mxPoint x="-1" as="offset" />
          </mxGeometry>
        </mxCell>
        <mxCell id="YCWpmOM7ewB6S8Fy5KMS-313" value="Booking System" style="swimlane;whiteSpace=wrap;html=1;" vertex="1" parent="1">
          <mxGeometry x="990" y="610" width="250" height="370" as="geometry" />
        </mxCell>
        <mxCell id="YCWpmOM7ewB6S8Fy5KMS-314" value="database" style="shape=cylinder3;whiteSpace=wrap;html=1;boundedLbl=1;backgroundOutline=1;size=15;" vertex="1" parent="YCWpmOM7ewB6S8Fy5KMS-313">
          <mxGeometry x="10" y="260" width="60" height="70" as="geometry" />
        </mxCell>
        <mxCell id="YCWpmOM7ewB6S8Fy5KMS-315" value="Booking Page" style="shape=mxgraph.cisco.misc.page_icon;html=1;pointerEvents=1;dashed=0;fillColor=#959697;strokeColor=#ffffff;strokeWidth=2;verticalLabelPosition=bottom;verticalAlign=top;align=center;outlineConnect=0;" vertex="1" parent="YCWpmOM7ewB6S8Fy5KMS-313">
          <mxGeometry x="90" y="30" width="58" height="74" as="geometry" />
        </mxCell>
        <mxCell id="YCWpmOM7ewB6S8Fy5KMS-316" value="event details&lt;br&gt;available&lt;br&gt;&lt;div&gt;time slots&lt;/div&gt;&lt;div&gt;&lt;br&gt;&lt;/div&gt;" style="text;html=1;align=left;verticalAlign=middle;resizable=0;points=[];autosize=1;strokeColor=none;fillColor=none;" vertex="1" parent="YCWpmOM7ewB6S8Fy5KMS-313">
          <mxGeometry x="160" y="32" width="90" height="70" as="geometry" />
        </mxCell>
        <mxCell id="YCWpmOM7ewB6S8Fy5KMS-317" style="edgeStyle=orthogonalEdgeStyle;rounded=0;orthogonalLoop=1;jettySize=auto;html=1;" edge="1" parent="YCWpmOM7ewB6S8Fy5KMS-313" source="YCWpmOM7ewB6S8Fy5KMS-318">
          <mxGeometry relative="1" as="geometry">
            <mxPoint x="120" y="130" as="targetPoint" />
          </mxGeometry>
        </mxCell>
        <mxCell id="YCWpmOM7ewB6S8Fy5KMS-318" value="reschedule Booking&amp;nbsp;" style="shape=mxgraph.cisco.misc.page_icon;html=1;pointerEvents=1;dashed=0;fillColor=#959697;strokeColor=#ffffff;strokeWidth=2;verticalLabelPosition=bottom;verticalAlign=top;align=center;outlineConnect=0;" vertex="1" parent="YCWpmOM7ewB6S8Fy5KMS-313">
          <mxGeometry x="32" y="133" width="58" height="74" as="geometry" />
        </mxCell>
        <mxCell id="YCWpmOM7ewB6S8Fy5KMS-319" style="edgeStyle=orthogonalEdgeStyle;rounded=0;orthogonalLoop=1;jettySize=auto;html=1;" edge="1" parent="YCWpmOM7ewB6S8Fy5KMS-313" source="YCWpmOM7ewB6S8Fy5KMS-320">
          <mxGeometry relative="1" as="geometry">
            <mxPoint x="120" y="130" as="targetPoint" />
            <Array as="points">
              <mxPoint x="120" y="170" />
            </Array>
          </mxGeometry>
        </mxCell>
        <mxCell id="YCWpmOM7ewB6S8Fy5KMS-320" value="Cancel Booking" style="shape=mxgraph.cisco.misc.page_icon;html=1;pointerEvents=1;dashed=0;fillColor=#959697;strokeColor=#ffffff;strokeWidth=2;verticalLabelPosition=bottom;verticalAlign=top;align=center;outlineConnect=0;" vertex="1" parent="YCWpmOM7ewB6S8Fy5KMS-313">
          <mxGeometry x="148" y="133" width="58" height="74" as="geometry" />
        </mxCell>
        <mxCell id="YCWpmOM7ewB6S8Fy5KMS-321" value="&lt;span style=&quot;text-wrap: nowrap;&quot;&gt;Property Member&amp;nbsp;&lt;/span&gt;&lt;div&gt;Availability Zone&lt;br&gt;&lt;br&gt;&lt;/div&gt;" style="fillColor=none;strokeColor=#147EBA;dashed=1;verticalAlign=top;fontStyle=0;fontColor=#147EBA;whiteSpace=wrap;html=1;" vertex="1" parent="YCWpmOM7ewB6S8Fy5KMS-313">
          <mxGeometry x="90" y="270" width="110" height="80" as="geometry" />
        </mxCell>
        <mxCell id="YCWpmOM7ewB6S8Fy5KMS-322" style="edgeStyle=orthogonalEdgeStyle;rounded=0;orthogonalLoop=1;jettySize=auto;html=1;" edge="1" parent="1" source="YCWpmOM7ewB6S8Fy5KMS-230">
          <mxGeometry relative="1" as="geometry">
            <mxPoint x="1050" y="610" as="targetPoint" />
            <Array as="points">
              <mxPoint x="1050" y="444" />
              <mxPoint x="1050" y="610" />
            </Array>
          </mxGeometry>
        </mxCell>
        <mxCell id="YCWpmOM7ewB6S8Fy5KMS-323" value="Request booking link generation" style="edgeLabel;html=1;align=center;verticalAlign=middle;resizable=0;points=[];" vertex="1" connectable="0" parent="YCWpmOM7ewB6S8Fy5KMS-322">
          <mxGeometry x="0.5218" y="-4" relative="1" as="geometry">
            <mxPoint as="offset" />
          </mxGeometry>
        </mxCell>
        <mxCell id="YCWpmOM7ewB6S8Fy5KMS-324" value="11" style="edgeLabel;html=1;align=center;verticalAlign=middle;resizable=0;points=[];" vertex="1" connectable="0" parent="YCWpmOM7ewB6S8Fy5KMS-322">
          <mxGeometry x="-0.2439" relative="1" as="geometry">
            <mxPoint as="offset" />
          </mxGeometry>
        </mxCell>
        <mxCell id="YCWpmOM7ewB6S8Fy5KMS-325" style="edgeStyle=orthogonalEdgeStyle;rounded=0;orthogonalLoop=1;jettySize=auto;html=1;entryX=1.017;entryY=0.249;entryDx=0;entryDy=0;entryPerimeter=0;" edge="1" parent="1" source="YCWpmOM7ewB6S8Fy5KMS-313" target="YCWpmOM7ewB6S8Fy5KMS-230">
          <mxGeometry relative="1" as="geometry">
            <mxPoint x="870" y="410" as="targetPoint" />
            <Array as="points">
              <mxPoint x="1125" y="397" />
              <mxPoint x="870" y="397" />
            </Array>
          </mxGeometry>
        </mxCell>
        <mxCell id="YCWpmOM7ewB6S8Fy5KMS-326" value="Return unique booking link" style="edgeLabel;html=1;align=center;verticalAlign=middle;resizable=0;points=[];" vertex="1" connectable="0" parent="YCWpmOM7ewB6S8Fy5KMS-325">
          <mxGeometry x="-0.375" y="4" relative="1" as="geometry">
            <mxPoint as="offset" />
          </mxGeometry>
        </mxCell>
        <mxCell id="YCWpmOM7ewB6S8Fy5KMS-327" value="12&lt;div&gt;&lt;br&gt;&lt;/div&gt;" style="edgeLabel;html=1;align=center;verticalAlign=middle;resizable=0;points=[];" vertex="1" connectable="0" parent="YCWpmOM7ewB6S8Fy5KMS-325">
          <mxGeometry x="-0.5323" y="1" relative="1" as="geometry">
            <mxPoint as="offset" />
          </mxGeometry>
        </mxCell>
        <mxCell id="YCWpmOM7ewB6S8Fy5KMS-328" value="Public User Access" style="shape=image;editableCssRules=.*;verticalLabelPosition=bottom;labelBackgroundColor=default;verticalAlign=top;aspect=fixed;imageAspect=0;image=data:image/svg+xml,PHN2ZyB4bWxucz0iaHR0cDovL3d3dy53My5vcmcvMjAwMC9zdmciIHZpZXdCb3g9Ii0wLjUgLTAuNSAyOCAyMy4zNDMiIGhlaWdodD0iMjMuMzQzIiB3aWR0aD0iMjgiPiYjeGE7CSAgPHN0eWxlIHR5cGU9InRleHQvY3NzIj4uc3QwIHsgc3RvcC1jb2xvcjogcmdiKDkxLCAxMTUsIDEzOSk7IH0gLnN0MSB7IHN0b3AtY29sb3I6IHJnYigzNCwgNTMsIDcyKTsgfSA8L3N0eWxlPiYjeGE7CTxkZWZzPiYjeGE7CQk8bGluZWFyR3JhZGllbnQgZ3JhZGllbnRVbml0cz0idXNlclNwYWNlT25Vc2UiIHkyPSIyNC4yMTciIHgyPSIxOS41NCIgeTE9IjIuODEzIiB4MT0iMi4wMzkiIGlkPSJBIj4mI3hhOwkJCTxzdG9wIGNsYXNzPSJzdDAiLz4mI3hhOwkJCTxzdG9wIGNsYXNzPSJzdDEiIG9mZnNldD0iMSIvPiYjeGE7CQk8L2xpbmVhckdyYWRpZW50PiYjeGE7CTwvZGVmcz4mI3hhOwk8cGF0aCBmaWxsPSJ1cmwoI0EpIiBkPSJNMTMuNTI3IDE4LjE4NnYyLjNoMS4xNWMuNzY4IDAgMS4xNS40MDMgMS4xNSAxLjIwNi4wMDQuMTUyLS4wMjIuMzA0LS4wNzkuNDQ1cy0uMTQxLjI3LS4yNDkuMzc3Yy0uMTgyLjIxNy0uNDU2LjMyOC0uODIyLjMyOEg3LjY2NGMtLjE1Mi4wMDQtLjMwMy0uMDIzLS40NDQtLjA4cy0uMjY5LS4xNDItLjM3Ni0uMjUtLjE5My0uMjM1LS4yNS0uMzc2LS4wODQtLjI5Mi0uMDgtLjQ0NGMwLS4zNjYuMTEtLjY1Ny4zMy0uODc3LjEwNy0uMTA4LjIzNS0uMTkzLjM3Ni0uMjVzLjI5Mi0uMDg0LjQ0NC0uMDhoMy41MDd2LTIuM0gzLjAwN2EzLjUzIDMuNTMgMCAwIDEtMi41MjEtLjk4NyAzLjUzIDMuNTMgMCAwIDEtLjk4NS0yLjUxOVYzLjAwOWMwLS45ODcuMzMtMS44MDkuOTg3LTIuNDY3LjMyNy0uMzM2LjcxOS0uNjAyIDEuMTUyLS43ODJzLjg5OS0uMjY4IDEuMzY4LS4yNmgxOC42ODNBMy4yNSAzLjI1IDAgMCAxIDI0LjE1Ni41NDJjLjY5NC42NTggMS4wNDEgMS40OCAxLjA0MSAyLjQ2NXYyLjM1NmMuMDA0LjE1Mi0uMDIyLjMwNC0uMDc5LjQ0NXMtLjE0MS4yNy0uMjQ5LjM3N2MtLjExNi4xMTItLjI1NC4xOTgtLjQwNC4yNTVzLS4zMTEuMDgyLS40NzIuMDc1Yy0uMTUyLjAwNC0uMzA0LS4wMjMtLjQ0NS0uMDhzLS4yNy0uMTQyLS4zNzctLjI1LS4xOTMtLjIzNi0uMjUtLjM3Ny0uMDg0LS4yOTMtLjA4LS40NDVWMy4wMDljMC0uNzY4LS4zODItMS4xNTItMS4xNS0xLjE1MkgzLjAwN2MtLjc2OCAwLTEuMTUuMzg0LTEuMTUgMS4xNXYxMS42NzJjMCAuNzY2LjM4MiAxLjE1IDEuMTUgMS4xNWgxMS42N2MuNzY4IDAgMS4xNS40MDMgMS4xNSAxLjIwNi4wMDQuMTUyLS4wMjMuMzAzLS4wNzkuNDQ0cy0uMTQxLjI2OS0uMjQ5LjM3NmMtLjE4Mi4yMTktLjQ1Ni4zMy0uODIyLjMzem0xMi44MjItOS4zN2MuNzY2IDAgMS4xNS40MDMgMS4xNSAxLjIwNnYxMS42N2MuMDA0LjE1Mi0uMDIzLjMwNC0uMDguNDQ1cy0uMTQyLjI3LS4yNS4zNzdjLS4xODIuMjE3LS40NTYuMzI4LS44MjIuMzI4aC03LjAxM2MtLjE1Mi4wMDQtLjMwMy0uMDIzLS40NDQtLjA4cy0uMjY5LS4xNDItLjM3Ni0uMjUtLjE5My0uMjM1LS4yNS0uMzc2LS4wODQtLjI5Mi0uMDgtLjQ0NHYtMTEuNjdjMC0uMzY2LjExLS42NTcuMzMtLjg3Ny4xMDctLjEwOC4yMzYtLjE5My4zNzctLjI1cy4yOTMtLjA4NC40NDUtLjA4em0tNS44MDkgMi4zNTZ2OC4xNjNoNC42NTd2LTguMTY0eiIvPiYjeGE7PC9zdmc+;" vertex="1" parent="1">
          <mxGeometry x="-135" y="270.28999999999996" width="48" height="39.43" as="geometry" />
        </mxCell>
        <mxCell id="YCWpmOM7ewB6S8Fy5KMS-329" style="edgeStyle=orthogonalEdgeStyle;rounded=0;orthogonalLoop=1;jettySize=auto;html=1;entryX=0;entryY=0.5;entryDx=0;entryDy=0;entryPerimeter=0;" edge="1" parent="1">
          <mxGeometry relative="1" as="geometry">
            <mxPoint x="-410" y="190" as="sourcePoint" />
            <mxPoint x="-140" y="190" as="targetPoint" />
          </mxGeometry>
        </mxCell>
        <mxCell id="YCWpmOM7ewB6S8Fy5KMS-330" value="v" style="edgeLabel;html=1;align=center;verticalAlign=middle;resizable=0;points=[];" vertex="1" connectable="0" parent="YCWpmOM7ewB6S8Fy5KMS-329">
          <mxGeometry x="0.0455" y="2" relative="1" as="geometry">
            <mxPoint x="-1" as="offset" />
          </mxGeometry>
        </mxCell>
        <mxCell id="YCWpmOM7ewB6S8Fy5KMS-331" value="&amp;nbsp;Select available time slot" style="edgeLabel;html=1;align=center;verticalAlign=middle;resizable=0;points=[];" vertex="1" connectable="0" parent="YCWpmOM7ewB6S8Fy5KMS-329">
          <mxGeometry x="-0.0394" y="-3" relative="1" as="geometry">
            <mxPoint x="1" as="offset" />
          </mxGeometry>
        </mxCell>
        <mxCell id="YCWpmOM7ewB6S8Fy5KMS-332" value="14" style="edgeLabel;html=1;align=center;verticalAlign=middle;resizable=0;points=[];" vertex="1" connectable="0" parent="YCWpmOM7ewB6S8Fy5KMS-329">
          <mxGeometry x="-0.8862" y="4" relative="1" as="geometry">
            <mxPoint x="1" as="offset" />
          </mxGeometry>
        </mxCell>
        <mxCell id="YCWpmOM7ewB6S8Fy5KMS-333" value="PublicUser" style="shape=umlActor;verticalLabelPosition=bottom;verticalAlign=top;html=1;" vertex="1" parent="1">
          <mxGeometry x="-440" y="147" width="30" height="60" as="geometry" />
        </mxCell>
        <mxCell id="YCWpmOM7ewB6S8Fy5KMS-334" style="edgeStyle=orthogonalEdgeStyle;rounded=0;orthogonalLoop=1;jettySize=auto;html=1;" edge="1" parent="1" source="YCWpmOM7ewB6S8Fy5KMS-337">
          <mxGeometry relative="1" as="geometry">
            <mxPoint x="-400" y="160" as="targetPoint" />
            <Array as="points">
              <mxPoint x="-269" y="160" />
              <mxPoint x="-400" y="161" />
            </Array>
          </mxGeometry>
        </mxCell>
        <mxCell id="YCWpmOM7ewB6S8Fy5KMS-335" value="booking confirmation" style="edgeLabel;html=1;align=center;verticalAlign=middle;resizable=0;points=[];" vertex="1" connectable="0" parent="YCWpmOM7ewB6S8Fy5KMS-334">
          <mxGeometry x="-0.0958" y="2" relative="1" as="geometry">
            <mxPoint x="-1" y="1" as="offset" />
          </mxGeometry>
        </mxCell>
        <mxCell id="YCWpmOM7ewB6S8Fy5KMS-336" value="17" style="edgeLabel;html=1;align=center;verticalAlign=middle;resizable=0;points=[];" vertex="1" connectable="0" parent="YCWpmOM7ewB6S8Fy5KMS-334">
          <mxGeometry x="-0.6801" y="1" relative="1" as="geometry">
            <mxPoint x="-1" as="offset" />
          </mxGeometry>
        </mxCell>
        <mxCell id="YCWpmOM7ewB6S8Fy5KMS-337" value="Booking Page" style="shape=mxgraph.cisco.misc.page_icon;html=1;pointerEvents=1;dashed=0;fillColor=#959697;strokeColor=#ffffff;strokeWidth=2;verticalLabelPosition=bottom;verticalAlign=top;align=center;outlineConnect=0;" vertex="1" parent="1">
          <mxGeometry x="-140" y="140" width="58" height="74" as="geometry" />
        </mxCell>
        <mxCell id="YCWpmOM7ewB6S8Fy5KMS-338" style="edgeStyle=orthogonalEdgeStyle;rounded=0;orthogonalLoop=1;jettySize=auto;html=1;entryX=0.5;entryY=1;entryDx=0;entryDy=0;entryPerimeter=0;" edge="1" parent="1" source="YCWpmOM7ewB6S8Fy5KMS-328" target="YCWpmOM7ewB6S8Fy5KMS-337">
          <mxGeometry relative="1" as="geometry" />
        </mxCell>
        <mxCell id="YCWpmOM7ewB6S8Fy5KMS-339" style="edgeStyle=orthogonalEdgeStyle;rounded=0;orthogonalLoop=1;jettySize=auto;html=1;entryX=0.876;entryY=-0.022;entryDx=0;entryDy=0;entryPerimeter=0;" edge="1" parent="1" source="YCWpmOM7ewB6S8Fy5KMS-337" target="YCWpmOM7ewB6S8Fy5KMS-313">
          <mxGeometry relative="1" as="geometry">
            <Array as="points">
              <mxPoint x="-116" y="-50" />
              <mxPoint x="1219" y="-50" />
            </Array>
          </mxGeometry>
        </mxCell>
        <mxCell id="YCWpmOM7ewB6S8Fy5KMS-340" value="Submit booking request" style="edgeLabel;html=1;align=center;verticalAlign=middle;resizable=0;points=[];" vertex="1" connectable="0" parent="YCWpmOM7ewB6S8Fy5KMS-339">
          <mxGeometry x="-0.297" y="7" relative="1" as="geometry">
            <mxPoint x="1" as="offset" />
          </mxGeometry>
        </mxCell>
        <mxCell id="YCWpmOM7ewB6S8Fy5KMS-341" value="15" style="edgeLabel;html=1;align=center;verticalAlign=middle;resizable=0;points=[];" vertex="1" connectable="0" parent="YCWpmOM7ewB6S8Fy5KMS-339">
          <mxGeometry x="-0.5744" y="-1" relative="1" as="geometry">
            <mxPoint as="offset" />
          </mxGeometry>
        </mxCell>
        <mxCell id="YCWpmOM7ewB6S8Fy5KMS-342" style="edgeStyle=orthogonalEdgeStyle;rounded=0;orthogonalLoop=1;jettySize=auto;html=1;exitX=0;exitY=0.25;exitDx=0;exitDy=0;entryX=0.5;entryY=0;entryDx=0;entryDy=0;" edge="1" parent="1" source="YCWpmOM7ewB6S8Fy5KMS-328" target="YCWpmOM7ewB6S8Fy5KMS-328">
          <mxGeometry relative="1" as="geometry" />
        </mxCell>
        <mxCell id="YCWpmOM7ewB6S8Fy5KMS-343" style="edgeStyle=orthogonalEdgeStyle;rounded=0;orthogonalLoop=1;jettySize=auto;html=1;exitX=0.75;exitY=0;exitDx=0;exitDy=0;" edge="1" parent="1" source="YCWpmOM7ewB6S8Fy5KMS-313" target="YCWpmOM7ewB6S8Fy5KMS-337">
          <mxGeometry relative="1" as="geometry">
            <Array as="points">
              <mxPoint x="1188" y="-100" />
              <mxPoint x="-130" y="-100" />
            </Array>
          </mxGeometry>
        </mxCell>
        <mxCell id="YCWpmOM7ewB6S8Fy5KMS-344" value=": Confirm booking" style="edgeLabel;html=1;align=center;verticalAlign=middle;resizable=0;points=[];" vertex="1" connectable="0" parent="YCWpmOM7ewB6S8Fy5KMS-343">
          <mxGeometry x="0.413" y="-5" relative="1" as="geometry">
            <mxPoint x="1" as="offset" />
          </mxGeometry>
        </mxCell>
        <mxCell id="YCWpmOM7ewB6S8Fy5KMS-345" value="16" style="edgeLabel;html=1;align=center;verticalAlign=middle;resizable=0;points=[];" vertex="1" connectable="0" parent="YCWpmOM7ewB6S8Fy5KMS-343">
          <mxGeometry x="-0.1094" y="4" relative="1" as="geometry">
            <mxPoint x="1" as="offset" />
          </mxGeometry>
        </mxCell>
        <mxCell id="YCWpmOM7ewB6S8Fy5KMS-346" value="" style="rounded=0;whiteSpace=wrap;html=1;fillColor=none;" vertex="1" parent="1">
          <mxGeometry x="870" y="20" width="200" height="233" as="geometry" />
        </mxCell>
        <mxCell id="YCWpmOM7ewB6S8Fy5KMS-347" value="&amp;nbsp;One-to-One meetings" style="rounded=1;whiteSpace=wrap;html=1;fillColor=#dae8fc;strokeColor=#6c8ebf;" vertex="1" parent="1">
          <mxGeometry x="906" y="29" width="120" height="36" as="geometry" />
        </mxCell>
        <mxCell id="YCWpmOM7ewB6S8Fy5KMS-348" value="Group meetings." style="rounded=1;whiteSpace=wrap;html=1;fillColor=#f8cecc;strokeColor=#b85450;" vertex="1" parent="1">
          <mxGeometry x="908" y="72" width="120" height="33" as="geometry" />
        </mxCell>
        <mxCell id="YCWpmOM7ewB6S8Fy5KMS-349" value="Collective Meetings" style="rounded=1;whiteSpace=wrap;html=1;fillColor=#ffe6cc;strokeColor=#d79b00;" vertex="1" parent="1">
          <mxGeometry x="908" y="111" width="120" height="36" as="geometry" />
        </mxCell>
        <mxCell id="YCWpmOM7ewB6S8Fy5KMS-350" style="edgeStyle=orthogonalEdgeStyle;rounded=0;orthogonalLoop=1;jettySize=auto;html=1;entryX=0.574;entryY=1.005;entryDx=0;entryDy=0;entryPerimeter=0;" edge="1" parent="1" source="YCWpmOM7ewB6S8Fy5KMS-230" target="YCWpmOM7ewB6S8Fy5KMS-346">
          <mxGeometry relative="1" as="geometry">
            <Array as="points">
              <mxPoint x="985" y="360" />
            </Array>
          </mxGeometry>
        </mxCell>
        <mxCell id="YCWpmOM7ewB6S8Fy5KMS-351" value="Filter" style="edgeLabel;html=1;align=center;verticalAlign=middle;resizable=0;points=[];" vertex="1" connectable="0" parent="YCWpmOM7ewB6S8Fy5KMS-350">
          <mxGeometry x="-0.0778" y="-3" relative="1" as="geometry">
            <mxPoint x="1" as="offset" />
          </mxGeometry>
        </mxCell>
        <mxCell id="YCWpmOM7ewB6S8Fy5KMS-352" value="&lt;span id=&quot;docs-internal-guid-227595dd-7fff-f0b6-c566-8dc261e1aed1&quot;&gt;&lt;span style=&quot;font-size: 11.5pt; font-family: Arial, sans-serif; color: rgb(29, 28, 29); background-color: transparent; font-variant-numeric: normal; font-variant-east-asian: normal; font-variant-alternates: normal; font-variant-position: normal; vertical-align: baseline; white-space: pre-wrap;&quot;&gt;Google Calendar, Outlook, icel&lt;/span&gt;&lt;/span&gt;" style="html=1;dashed=0;aspect=fixed;verticalLabelPosition=bottom;verticalAlign=top;align=center;shape=mxgraph.gmdl.calendar;strokeColor=none;fillColor=#737373;shadow=0;sketch=0;" vertex="1" parent="1">
          <mxGeometry x="1360" y="10" width="130" height="130" as="geometry" />
        </mxCell>
        <mxCell id="YCWpmOM7ewB6S8Fy5KMS-353" style="edgeStyle=orthogonalEdgeStyle;rounded=0;orthogonalLoop=1;jettySize=auto;html=1;entryX=0.995;entryY=0.426;entryDx=0;entryDy=0;entryPerimeter=0;" edge="1" parent="1" source="YCWpmOM7ewB6S8Fy5KMS-352" target="YCWpmOM7ewB6S8Fy5KMS-230">
          <mxGeometry relative="1" as="geometry" />
        </mxCell>
        <mxCell id="YCWpmOM7ewB6S8Fy5KMS-354" value="&lt;span id=&quot;docs-internal-guid-014c1962-7fff-ae4c-3ca7-2ee5105f0eff&quot;&gt;&lt;p style=&quot;line-height:1.38;margin-left: 3pt;margin-right: 3pt;margin-top:0pt;margin-bottom:0pt;&quot; dir=&quot;ltr&quot;&gt;&lt;span style=&quot;font-size: 11.5pt; font-family: Arial, sans-serif; color: rgb(29, 28, 29); background-color: transparent; font-variant-numeric: normal; font-variant-east-asian: normal; font-variant-alternates: normal; font-variant-position: normal; vertical-align: baseline; white-space: pre-wrap;&quot;&gt;. Integration with External Calendars&lt;/span&gt;&lt;/p&gt;&lt;div&gt;&lt;span style=&quot;font-size: 11.5pt; font-family: Arial, sans-serif; color: rgb(29, 28, 29); background-color: transparent; font-variant-numeric: normal; font-variant-east-asian: normal; font-variant-alternates: normal; font-variant-position: normal; vertical-align: baseline; white-space: pre-wrap;&quot;&gt;&lt;br&gt;&lt;/span&gt;&lt;/div&gt;&lt;/span&gt;" style="edgeLabel;html=1;align=center;verticalAlign=middle;resizable=0;points=[];" vertex="1" connectable="0" parent="YCWpmOM7ewB6S8Fy5KMS-353">
          <mxGeometry x="-0.8089" y="1" relative="1" as="geometry">
            <mxPoint as="offset" />
          </mxGeometry>
        </mxCell>
        <mxCell id="YCWpmOM7ewB6S8Fy5KMS-355" value="" style="shape=image;html=1;verticalAlign=top;verticalLabelPosition=bottom;labelBackgroundColor=#ffffff;imageAspect=0;aspect=fixed;image=https://cdn1.iconfinder.com/data/icons/ionicons-outline-vol-2/512/notifications-outline-128.png" vertex="1" parent="1">
          <mxGeometry x="390" y="400" width="32" height="32" as="geometry" />
        </mxCell>
        <mxCell id="YCWpmOM7ewB6S8Fy5KMS-357" style="edgeStyle=orthogonalEdgeStyle;rounded=0;orthogonalLoop=1;jettySize=auto;html=1;" edge="1" parent="1" target="YCWpmOM7ewB6S8Fy5KMS-333">
          <mxGeometry relative="1" as="geometry">
            <mxPoint x="410" y="25" as="sourcePoint" />
          </mxGeometry>
        </mxCell>
        <mxCell id="YCWpmOM7ewB6S8Fy5KMS-358" value="&lt;span id=&quot;docs-internal-guid-07c58983-7fff-3ccf-ee3f-fe9b889da54d&quot;&gt;&lt;span style=&quot;font-size: 11.5pt; font-family: Arial, sans-serif; color: rgb(29, 28, 29); background-color: transparent; font-variant-numeric: normal; font-variant-east-asian: normal; font-variant-alternates: normal; font-variant-position: normal; vertical-align: baseline; white-space: pre-wrap;&quot;&gt;Notifications &lt;/span&gt;&lt;/span&gt;" style="edgeLabel;html=1;align=center;verticalAlign=middle;resizable=0;points=[];" vertex="1" connectable="0" parent="YCWpmOM7ewB6S8Fy5KMS-357">
          <mxGeometry x="0.2504" y="2" relative="1" as="geometry">
            <mxPoint as="offset" />
          </mxGeometry>
        </mxCell>
        <mxCell id="YCWpmOM7ewB6S8Fy5KMS-360" value="" style="verticalLabelPosition=bottom;shadow=0;dashed=0;align=center;html=1;verticalAlign=top;strokeWidth=1;shape=mxgraph.mockup.misc.mail2;strokeColor=#999999;" vertex="1" parent="1">
          <mxGeometry x="-220" y="-10" width="60" height="20" as="geometry" />
        </mxCell>
        <mxCell id="YCWpmOM7ewB6S8Fy5KMS-361" value="" style="rounded=0;whiteSpace=wrap;html=1;fillColor=none;strokeColor=#FFFFFF;" vertex="1" parent="1">
          <mxGeometry x="1390" y="890" width="110" height="60" as="geometry" />
        </mxCell>
        <mxCell id="YCWpmOM7ewB6S8Fy5KMS-363" value="Round-Robin Meetings" style="rounded=1;whiteSpace=wrap;html=1;fillColor=#e1d5e7;strokeColor=#9673a6;" vertex="1" parent="1">
          <mxGeometry x="908" y="153" width="120" height="36" as="geometry" />
        </mxCell>
        <mxCell id="YCWpmOM7ewB6S8Fy5KMS-364" value="Paid events" style="rounded=1;whiteSpace=wrap;html=1;fillColor=#d5e8d4;strokeColor=#82b366;" vertex="1" parent="1">
          <mxGeometry x="908" y="198" width="120" height="36" as="geometry" />
        </mxCell>
        <mxCell id="YCWpmOM7ewB6S8Fy5KMS-365" value="" style="group;dropTarget=0;pointerEvents=0;" vertex="1" parent="1">
          <mxGeometry x="384" y="-722.5" width="156" height="136.5" as="geometry" />
        </mxCell>
        <mxCell id="YCWpmOM7ewB6S8Fy5KMS-366" value="" style="html=1;overflow=block;blockSpacing=1;whiteSpace=wrap;shape=image;fontSize=13;spacing=0;strokeColor=none;strokeOpacity=100;rounded=1;absoluteArcSize=1;arcSize=9;strokeWidth=0;image=https://images.lucid.app/images/18b7c3bd-dc03-43ed-9f2d-6810f0b89f4b/content;imageAspect=0;lucidId=WESqGywsYJyB;" vertex="1" parent="YCWpmOM7ewB6S8Fy5KMS-365">
          <mxGeometry x="19.933333333333334" width="117" height="111.68181818181819" as="geometry" />
        </mxCell>
        <mxCell id="YCWpmOM7ewB6S8Fy5KMS-367" value="" style="group;dropTarget=0;pointerEvents=0;" vertex="1" parent="1">
          <mxGeometry x="1208" y="-1052.5" width="180" height="120" as="geometry" />
        </mxCell>
        <mxCell id="YCWpmOM7ewB6S8Fy5KMS-368" value="" style="html=1;overflow=block;blockSpacing=1;whiteSpace=wrap;shape=image;fontSize=13;spacing=0;strokeColor=none;strokeOpacity=100;rounded=1;absoluteArcSize=1;arcSize=9;strokeWidth=0;image=https://images.lucid.app/images/26230064-1304-4077-a670-fb0cdd433ad3/content;imageAspect=0;lucidId=eISq1QDDKBC4;" vertex="1" parent="YCWpmOM7ewB6S8Fy5KMS-367">
          <mxGeometry x="53" width="75" height="75" as="geometry" />
        </mxCell>
        <mxCell id="YCWpmOM7ewB6S8Fy5KMS-369" value="" style="group;dropTarget=0;pointerEvents=0;" vertex="1" parent="1">
          <mxGeometry x="1208" y="-902.5" width="180" height="120" as="geometry" />
        </mxCell>
        <mxCell id="YCWpmOM7ewB6S8Fy5KMS-370" value="" style="html=1;overflow=block;blockSpacing=1;whiteSpace=wrap;shape=image;fontSize=13;spacing=0;strokeColor=none;strokeOpacity=100;rounded=1;absoluteArcSize=1;arcSize=9;strokeWidth=0;image=https://images.lucid.app/images/26230064-1304-4077-a670-fb0cdd433ad3/content;imageAspect=0;lucidId=KJSq95y0Nhss;" vertex="1" parent="YCWpmOM7ewB6S8Fy5KMS-369">
          <mxGeometry x="53" width="75" height="75" as="geometry" />
        </mxCell>
        <mxCell id="YCWpmOM7ewB6S8Fy5KMS-371" value="" style="group;dropTarget=0;pointerEvents=0;" vertex="1" parent="1">
          <mxGeometry x="1208" y="-752.5" width="180" height="120" as="geometry" />
        </mxCell>
        <mxCell id="YCWpmOM7ewB6S8Fy5KMS-372" value="" style="html=1;overflow=block;blockSpacing=1;whiteSpace=wrap;shape=image;fontSize=13;spacing=0;strokeColor=none;strokeOpacity=100;rounded=1;absoluteArcSize=1;arcSize=9;strokeWidth=0;image=https://images.lucid.app/images/26230064-1304-4077-a670-fb0cdd433ad3/content;imageAspect=0;lucidId=SJSqWELvMlhe;" vertex="1" parent="YCWpmOM7ewB6S8Fy5KMS-371">
          <mxGeometry x="53" width="75" height="75" as="geometry" />
        </mxCell>
        <mxCell id="YCWpmOM7ewB6S8Fy5KMS-373" value="" style="group;dropTarget=0;pointerEvents=0;" vertex="1" parent="1">
          <mxGeometry x="1208" y="-452.5" width="180" height="120" as="geometry" />
        </mxCell>
        <mxCell id="YCWpmOM7ewB6S8Fy5KMS-374" value="" style="html=1;overflow=block;blockSpacing=1;whiteSpace=wrap;shape=image;fontSize=13;spacing=0;strokeColor=none;strokeOpacity=100;rounded=1;absoluteArcSize=1;arcSize=9;strokeWidth=0;image=https://images.lucid.app/images/26230064-1304-4077-a670-fb0cdd433ad3/content;imageAspect=0;lucidId=TJSqEkORpOHb;" vertex="1" parent="YCWpmOM7ewB6S8Fy5KMS-373">
          <mxGeometry x="53" width="75" height="75" as="geometry" />
        </mxCell>
        <mxCell id="YCWpmOM7ewB6S8Fy5KMS-375" value="" style="group;dropTarget=0;pointerEvents=0;" vertex="1" parent="1">
          <mxGeometry x="1208" y="-602.5" width="180" height="120" as="geometry" />
        </mxCell>
        <mxCell id="YCWpmOM7ewB6S8Fy5KMS-376" value="" style="html=1;overflow=block;blockSpacing=1;whiteSpace=wrap;shape=image;fontSize=13;spacing=0;strokeColor=none;strokeOpacity=100;rounded=1;absoluteArcSize=1;arcSize=9;strokeWidth=0;image=https://images.lucid.app/images/26230064-1304-4077-a670-fb0cdd433ad3/content;imageAspect=0;lucidId=VJSqn4jx-HWB;" vertex="1" parent="YCWpmOM7ewB6S8Fy5KMS-375">
          <mxGeometry x="53" width="75" height="75" as="geometry" />
        </mxCell>
        <mxCell id="YCWpmOM7ewB6S8Fy5KMS-377" value="" style="html=1;overflow=block;blockSpacing=1;whiteSpace=wrap;fontSize=13;spacing=9;strokeColor=#3a414a;strokeOpacity=100;fillOpacity=0;rounded=1;absoluteArcSize=1;arcSize=9;fillColor=#000000;strokeWidth=1.5;lucidId=yOSqhks-q8vL;container=1;collapsible=0;" vertex="1" parent="1">
          <mxGeometry x="384" y="-722.5" width="158" height="140.5" as="geometry" />
        </mxCell>
        <mxCell id="YCWpmOM7ewB6S8Fy5KMS-427" value="Kafka Broker" style="text;html=1;align=center;verticalAlign=middle;whiteSpace=wrap;rounded=0;" vertex="1" parent="YCWpmOM7ewB6S8Fy5KMS-377">
          <mxGeometry x="19.93" y="105" width="98.43" height="30" as="geometry" />
        </mxCell>
        <mxCell id="YCWpmOM7ewB6S8Fy5KMS-378" value="&lt;span style=&quot;color: rgba(0, 0, 0, 0); font-family: monospace; font-size: 0px; text-align: start; text-wrap-mode: nowrap;&quot;&gt;%3CmxGraphModel%3E%3Croot%3E%3CmxCell%20id%3D%220%22%2F%3E%3CmxCell%20id%3D%221%22%20parent%3D%220%22%2F%3E%3CmxCell%20id%3D%222%22%20value%3D%22%22%20style%3D%22html%3D1%3Boverflow%3Dblock%3BblockSpacing%3D1%3BwhiteSpace%3Dwrap%3BfontSize%3D13%3Bspacing%3D9%3BstrokeColor%3D%233a414a%3BstrokeOpacity%3D100%3BfillOpacity%3D0%3Brounded%3D1%3BabsoluteArcSize%3D1%3BarcSize%3D9%3BfillColor%3D%23000000%3BstrokeWidth%3D1.5%3BlucidId%3DcQSq3GP~T244%3Bcontainer%3D1%3Bcollapsible%3D0%3B%22%20vertex%3D%221%22%20parent%3D%221%22%3E%3CmxGeometry%20x%3D%221223%22%20y%3D%22-467.5%22%20width%3D%22150%22%20height%3D%22128%22%20as%3D%22geometry%22%2F%3E%3C%2FmxCell%3E%3CmxCell%20id%3D%223%22%20value%3D%22%26lt%3Bspan%20style%3D%26quot%3Btext-wrap-mode%3A%20nowrap%3B%26quot%3B%26gt%3BMyCal%26lt%3B%2Fspan%26gt%3B%22%20style%3D%22text%3Bhtml%3D1%3Balign%3Dcenter%3BverticalAlign%3Dmiddle%3BwhiteSpace%3Dwrap%3Brounded%3D0%3B%22%20vertex%3D%221%22%20parent%3D%222%22%3E%3CmxGeometry%20x%3D%2242%22%20y%3D%2297.5%22%20width%3D%2260%22%20height%3D%2230%22%20as%3D%22geometry%22%2F%3E%3C%2FmxCell%3E%3C%2Froot%3E%3C%2FmxGraphModel%3E&lt;/span&gt;" style="html=1;overflow=block;blockSpacing=1;whiteSpace=wrap;fontSize=13;spacing=9;strokeColor=#3a414a;strokeOpacity=100;fillOpacity=0;rounded=1;absoluteArcSize=1;arcSize=9;fillColor=#000000;strokeWidth=1.5;lucidId=cQSq3GP~T244;container=1;collapsible=0;" vertex="1" parent="1">
          <mxGeometry x="1223" y="-467.5" width="150" height="128" as="geometry" />
        </mxCell>
        <mxCell id="YCWpmOM7ewB6S8Fy5KMS-379" value="&lt;span style=&quot;text-wrap-mode: nowrap;&quot;&gt;MyCal&lt;/span&gt;" style="text;html=1;align=center;verticalAlign=middle;whiteSpace=wrap;rounded=0;" vertex="1" parent="YCWpmOM7ewB6S8Fy5KMS-378">
          <mxGeometry x="42" y="97.5" width="60" height="30" as="geometry" />
        </mxCell>
        <mxCell id="YCWpmOM7ewB6S8Fy5KMS-380" value="" style="html=1;overflow=block;blockSpacing=1;whiteSpace=wrap;fontSize=13;spacing=9;strokeColor=#3a414a;strokeOpacity=100;fillOpacity=0;rounded=1;absoluteArcSize=1;arcSize=9;fillColor=#000000;strokeWidth=1.5;lucidId=.PSqvpiDdump;container=1;collapsible=0;" vertex="1" parent="1">
          <mxGeometry x="1223" y="-617.5" width="150" height="128" as="geometry" />
        </mxCell>
        <mxCell id="YCWpmOM7ewB6S8Fy5KMS-381" value="" style="html=1;overflow=block;blockSpacing=1;whiteSpace=wrap;fontSize=13;spacing=9;strokeColor=#3a414a;strokeOpacity=100;fillOpacity=0;rounded=1;absoluteArcSize=1;arcSize=9;fillColor=#000000;strokeWidth=1.5;lucidId=LPSqyzS.c2Wz;container=1;collapsible=0;" vertex="1" parent="1">
          <mxGeometry x="1223" y="-759.5" width="150" height="128" as="geometry" />
        </mxCell>
        <mxCell id="YCWpmOM7ewB6S8Fy5KMS-382" value="" style="html=1;overflow=block;blockSpacing=1;whiteSpace=wrap;fontSize=13;spacing=9;strokeColor=#3a414a;strokeOpacity=100;fillOpacity=0;rounded=1;absoluteArcSize=1;arcSize=9;fillColor=#000000;strokeWidth=1.5;lucidId=sPSqsm5YhKc8;container=1;collapsible=0;" vertex="1" parent="1">
          <mxGeometry x="1223" y="-909.5" width="150" height="128" as="geometry" />
        </mxCell>
        <mxCell id="YCWpmOM7ewB6S8Fy5KMS-383" value="" style="html=1;jettySize=18;whiteSpace=wrap;overflow=block;blockSpacing=1;fontSize=13;strokeColor=#3a414a;strokeOpacity=100;strokeWidth=0.8;rounded=1;arcSize=12;edgeStyle=orthogonalEdgeStyle;startArrow=none;endArrow=block;endFill=1;exitX=0.5;exitY=1;exitPerimeter=0;entryX=0.5;entryY=0;entryPerimeter=0;lucidId=QJSqclnqRREZ;" edge="1" parent="YCWpmOM7ewB6S8Fy5KMS-382" source="YCWpmOM7ewB6S8Fy5KMS-370">
          <mxGeometry width="100" height="100" relative="1" as="geometry">
            <Array as="points" />
            <mxPoint x="75" y="82" as="targetPoint" />
          </mxGeometry>
        </mxCell>
        <mxCell id="YCWpmOM7ewB6S8Fy5KMS-384" value="" style="html=1;overflow=block;blockSpacing=1;whiteSpace=wrap;fontSize=13;spacing=9;strokeColor=#3a414a;strokeOpacity=100;fillOpacity=0;rounded=1;absoluteArcSize=1;arcSize=9;fillColor=#000000;strokeWidth=1.5;lucidId=3PSqwQcDIoHy;container=1;collapsible=0;" vertex="1" parent="1">
          <mxGeometry x="1223" y="-1067.5" width="150" height="128" as="geometry" />
        </mxCell>
        <mxCell id="YCWpmOM7ewB6S8Fy5KMS-385" value="" style="group;dropTarget=0;pointerEvents=0;" vertex="1" parent="1">
          <mxGeometry x="744" y="-864.5" width="180" height="120" as="geometry" />
        </mxCell>
        <mxCell id="YCWpmOM7ewB6S8Fy5KMS-386" value="" style="html=1;overflow=block;blockSpacing=1;whiteSpace=wrap;shape=image;fontSize=13;spacing=0;strokeColor=none;strokeOpacity=100;rounded=1;absoluteArcSize=1;arcSize=9;strokeWidth=0;image=https://images.lucid.app/images/26230064-1304-4077-a670-fb0cdd433ad3/content;imageAspect=0;lucidId=C0SqjXb6u9Ex;" vertex="1" parent="YCWpmOM7ewB6S8Fy5KMS-385">
          <mxGeometry x="53" width="75" height="75" as="geometry" />
        </mxCell>
        <mxCell id="YCWpmOM7ewB6S8Fy5KMS-387" value="&lt;span style=&quot;color: rgba(0, 0, 0, 0); font-family: monospace; font-size: 0px; text-align: start; text-wrap-mode: nowrap;&quot;&gt;%3CmxGraphModel%3E%3Croot%3E%3CmxCell%20id%3D%220%22%2F%3E%3CmxCell%20id%3D%221%22%20parent%3D%220%22%2F%3E%3CmxCell%20id%3D%222%22%20value%3D%22%22%20style%3D%22html%3D1%3Boverflow%3Dblock%3BblockSpacing%3D1%3BwhiteSpace%3Dwrap%3BfontSize%3D13%3Bspacing%3D9%3BstrokeColor%3D%233a414a%3BstrokeOpacity%3D100%3BfillOpacity%3D0%3Brounded%3D1%3BabsoluteArcSize%3D1%3BarcSize%3D9%3BfillColor%3D%23000000%3BstrokeWidth%3D1.5%3BlucidId%3DC0Sqtd.wc.3k%3Bcontainer%3D1%3Bcollapsible%3D0%3B%22%20vertex%3D%221%22%20parent%3D%221%22%3E%3CmxGeometry%20x%3D%22759%22%20y%3D%22-872.5%22%20width%3D%22150%22%20height%3D%22128%22%20as%3D%22geometry%22%2F%3E%3C%2FmxCell%3E%3C%2Froot%3E%3C%2FmxGraphModel%3E&lt;/span&gt;" style="html=1;overflow=block;blockSpacing=1;whiteSpace=wrap;fontSize=13;spacing=9;strokeColor=#3a414a;strokeOpacity=100;fillOpacity=0;rounded=1;absoluteArcSize=1;arcSize=9;fillColor=#000000;strokeWidth=1.5;lucidId=C0Sqtd.wc.3k;container=1;collapsible=0;" vertex="1" parent="1">
          <mxGeometry x="756" y="-879.5" width="150" height="128" as="geometry" />
        </mxCell>
        <mxCell id="YCWpmOM7ewB6S8Fy5KMS-388" value="" style="group;dropTarget=0;pointerEvents=0;" vertex="1" parent="1">
          <mxGeometry x="-201" y="-1128.75" width="1605" height="888.75" as="geometry" />
        </mxCell>
        <mxCell id="YCWpmOM7ewB6S8Fy5KMS-389" value="&lt;div style=&quot;display: flex; justify-content: center; text-align: center; align-items: baseline; font-size: 0; line-height: 1.25;margin-top: -2px;&quot;&gt;&lt;span&gt;&lt;font color=&quot;#000000&quot;&gt;&lt;span style=&quot;font-size:13px;&quot;&gt;Tawkto API Gateway&lt;/span&gt;&lt;/font&gt;&lt;/span&gt;&lt;/div&gt;" style="html=1;overflow=block;blockSpacing=1;whiteSpace=wrap;fontSize=13;spacing=0;strokeColor=#3a414a;strokeOpacity=100;rounded=1;absoluteArcSize=1;arcSize=9;fillColor=none;strokeWidth=1.5;lucidId=qDSq3-KbF5~l;" vertex="1" parent="YCWpmOM7ewB6S8Fy5KMS-388">
          <mxGeometry x="285" y="435.5" width="90" height="90" as="geometry" />
        </mxCell>
        <mxCell id="YCWpmOM7ewB6S8Fy5KMS-391" value="" style="html=1;jettySize=18;whiteSpace=wrap;fontSize=13;strokeColor=#3a414a;strokeOpacity=100;strokeWidth=0.8;rounded=1;arcSize=12;edgeStyle=orthogonalEdgeStyle;startArrow=none;endArrow=block;endFill=1;exitX=0.5;exitY=1.005;exitPerimeter=0;entryX=-0.005;entryY=0.5;entryPerimeter=0;lucidId=YQSqAki8LbEx;" edge="1" parent="YCWpmOM7ewB6S8Fy5KMS-388" source="YCWpmOM7ewB6S8Fy5KMS-377" target="YCWpmOM7ewB6S8Fy5KMS-382">
          <mxGeometry width="100" height="100" relative="1" as="geometry">
            <Array as="points">
              <mxPoint x="677" y="615.5" />
              <mxPoint x="1394" y="615.5" />
              <mxPoint x="1394" y="273.5" />
            </Array>
          </mxGeometry>
        </mxCell>
        <mxCell id="YCWpmOM7ewB6S8Fy5KMS-395" value="" style="html=1;jettySize=18;whiteSpace=wrap;fontSize=13;strokeColor=#3a414a;strokeOpacity=100;strokeWidth=0.8;rounded=1;arcSize=12;edgeStyle=orthogonalEdgeStyle;startArrow=none;endArrow=block;endFill=1;exitX=1.005;exitY=0.5;exitPerimeter=0;entryX=0.5;entryY=-0.005;entryPerimeter=0;lucidId=JSSqm1arnnqj;" edge="1" parent="YCWpmOM7ewB6S8Fy5KMS-388" source="YCWpmOM7ewB6S8Fy5KMS-384" target="YCWpmOM7ewB6S8Fy5KMS-377">
          <mxGeometry width="100" height="100" relative="1" as="geometry">
            <Array as="points">
              <mxPoint x="1605" y="116.5" />
              <mxPoint x="1605" y="0.5" />
              <mxPoint x="675" y="0.5" />
            </Array>
          </mxGeometry>
        </mxCell>
        <mxCell id="YCWpmOM7ewB6S8Fy5KMS-396" value="" style="html=1;jettySize=18;whiteSpace=wrap;fontSize=13;strokeColor=#3a414a;strokeOpacity=100;strokeWidth=0.8;rounded=1;arcSize=12;edgeStyle=orthogonalEdgeStyle;startArrow=none;endArrow=block;endFill=1;exitX=1.005;exitY=0.5;exitPerimeter=0;entryX=0.5;entryY=-0.005;entryPerimeter=0;lucidId=YSSqXCsYEp60;" edge="1" parent="YCWpmOM7ewB6S8Fy5KMS-388" source="YCWpmOM7ewB6S8Fy5KMS-382" target="YCWpmOM7ewB6S8Fy5KMS-377">
          <mxGeometry width="100" height="100" relative="1" as="geometry">
            <Array as="points">
              <mxPoint x="1605" y="273.5" />
              <mxPoint x="1605" y="0.5" />
              <mxPoint x="675" y="0.5" />
            </Array>
          </mxGeometry>
        </mxCell>
        <mxCell id="YCWpmOM7ewB6S8Fy5KMS-397" value="" style="html=1;jettySize=18;whiteSpace=wrap;fontSize=13;strokeColor=#3a414a;strokeOpacity=100;strokeWidth=0.8;rounded=1;arcSize=12;edgeStyle=orthogonalEdgeStyle;startArrow=none;endArrow=block;endFill=1;exitX=1.005;exitY=0.5;exitPerimeter=0;entryX=0.5;entryY=-0.005;entryPerimeter=0;lucidId=9SSq0JHHOXhw;" edge="1" parent="YCWpmOM7ewB6S8Fy5KMS-388" source="YCWpmOM7ewB6S8Fy5KMS-381" target="YCWpmOM7ewB6S8Fy5KMS-377">
          <mxGeometry width="100" height="100" relative="1" as="geometry">
            <Array as="points">
              <mxPoint x="1605" y="423.5" />
              <mxPoint x="1605" y="0.5" />
              <mxPoint x="675" y="0.5" />
            </Array>
          </mxGeometry>
        </mxCell>
        <mxCell id="YCWpmOM7ewB6S8Fy5KMS-398" value="" style="html=1;jettySize=18;whiteSpace=wrap;fontSize=13;strokeColor=#3a414a;strokeOpacity=100;strokeWidth=0.8;rounded=1;arcSize=12;edgeStyle=orthogonalEdgeStyle;startArrow=none;endArrow=block;endFill=1;exitX=1.005;exitY=0.5;exitPerimeter=0;entryX=0.5;entryY=-0.005;entryPerimeter=0;lucidId=cTSqyYTIycYj;" edge="1" parent="YCWpmOM7ewB6S8Fy5KMS-388" source="YCWpmOM7ewB6S8Fy5KMS-380" target="YCWpmOM7ewB6S8Fy5KMS-377">
          <mxGeometry width="100" height="100" relative="1" as="geometry">
            <Array as="points">
              <mxPoint x="1605" y="566.5" />
              <mxPoint x="1605" y="0.5" />
              <mxPoint x="675" y="0.5" />
            </Array>
          </mxGeometry>
        </mxCell>
        <mxCell id="YCWpmOM7ewB6S8Fy5KMS-399" value="" style="html=1;jettySize=18;whiteSpace=wrap;fontSize=13;strokeColor=#3a414a;strokeOpacity=100;strokeWidth=0.8;rounded=1;arcSize=12;edgeStyle=orthogonalEdgeStyle;startArrow=none;endArrow=block;endFill=1;exitX=1.005;exitY=0.5;exitPerimeter=0;entryX=0.5;entryY=-0.005;entryPerimeter=0;lucidId=oTSq.2ZNB9b.;" edge="1" parent="YCWpmOM7ewB6S8Fy5KMS-388" source="YCWpmOM7ewB6S8Fy5KMS-378" target="YCWpmOM7ewB6S8Fy5KMS-377">
          <mxGeometry width="100" height="100" relative="1" as="geometry">
            <Array as="points">
              <mxPoint x="1605" y="716.5" />
              <mxPoint x="1605" y="0.5" />
              <mxPoint x="675" y="0.5" />
            </Array>
          </mxGeometry>
        </mxCell>
        <mxCell id="YCWpmOM7ewB6S8Fy5KMS-400" value="" style="html=1;jettySize=18;whiteSpace=wrap;fontSize=13;strokeColor=#3a414a;strokeOpacity=100;strokeWidth=0.8;rounded=1;arcSize=12;edgeStyle=orthogonalEdgeStyle;startArrow=none;exitX=0.513;exitY=0.438;exitPerimeter=0;entryX=0;entryY=0.5;entryPerimeter=0;lucidId=VWSqCVHDue0Q;" edge="1" parent="YCWpmOM7ewB6S8Fy5KMS-388" target="YCWpmOM7ewB6S8Fy5KMS-389">
          <mxGeometry width="100" height="100" relative="1" as="geometry">
            <Array as="points" />
            <mxPoint x="30.779999999999745" y="479.6300000000001" as="sourcePoint" />
          </mxGeometry>
        </mxCell>
        <mxCell id="YCWpmOM7ewB6S8Fy5KMS-401" value="Hit  API Endpoint" style="text;html=1;resizable=0;labelBackgroundColor=default;align=center;verticalAlign=middle;fontStyle=1;fontColor=#333333;fontSize=13.3;" vertex="1" parent="YCWpmOM7ewB6S8Fy5KMS-400">
          <mxGeometry relative="1" as="geometry">
            <mxPoint as="offset" />
          </mxGeometry>
        </mxCell>
        <mxCell id="YCWpmOM7ewB6S8Fy5KMS-402" value="" style="html=1;jettySize=18;whiteSpace=wrap;fontSize=13;strokeColor=#3a414a;strokeOpacity=100;strokeWidth=0.8;rounded=1;arcSize=12;edgeStyle=orthogonalEdgeStyle;endArrow=block;endFill=1;exitX=-0.005;exitY=0.5;exitPerimeter=0;entryX=0.844;entryY=-0.005;entryPerimeter=0;lucidId=G3SqycLEXcrZ;" edge="1" parent="YCWpmOM7ewB6S8Fy5KMS-388" source="YCWpmOM7ewB6S8Fy5KMS-387" target="YCWpmOM7ewB6S8Fy5KMS-377">
          <mxGeometry width="100" height="100" relative="1" as="geometry">
            <Array as="points" />
          </mxGeometry>
        </mxCell>
        <mxCell id="YCWpmOM7ewB6S8Fy5KMS-403" value="Authentication" style="text;html=1;resizable=0;labelBackgroundColor=default;align=center;verticalAlign=middle;fontStyle=1;fontColor=#333333;fontSize=13.3;" vertex="1" parent="YCWpmOM7ewB6S8Fy5KMS-402">
          <mxGeometry x="-0.4872298027634733" relative="1" as="geometry">
            <mxPoint as="offset" />
          </mxGeometry>
        </mxCell>
        <mxCell id="YCWpmOM7ewB6S8Fy5KMS-404" value="" style="html=1;jettySize=18;whiteSpace=wrap;fontSize=13;strokeColor=#3a414a;strokeOpacity=100;strokeWidth=0.8;rounded=1;arcSize=12;edgeStyle=orthogonalEdgeStyle;startArrow=none;endArrow=block;endFill=1;exitX=0.5;exitY=1.006;exitPerimeter=0;entryX=1.004;entryY=0.5;entryPerimeter=0;lucidId=z.Sqpf2BF27i;" edge="1" parent="YCWpmOM7ewB6S8Fy5KMS-388" source="YCWpmOM7ewB6S8Fy5KMS-387" target="YCWpmOM7ewB6S8Fy5KMS-377">
          <mxGeometry width="100" height="100" relative="1" as="geometry">
            <Array as="points" />
          </mxGeometry>
        </mxCell>
        <mxCell id="YCWpmOM7ewB6S8Fy5KMS-405" value="Confirm Authentication" style="text;html=1;resizable=0;labelBackgroundColor=default;align=center;verticalAlign=middle;fontStyle=1;fontColor=#333333;fontSize=13.3;" vertex="1" parent="YCWpmOM7ewB6S8Fy5KMS-404">
          <mxGeometry x="0.16163781215337014" relative="1" as="geometry">
            <mxPoint x="-5" y="-16" as="offset" />
          </mxGeometry>
        </mxCell>
        <mxCell id="YCWpmOM7ewB6S8Fy5KMS-406" value="" style="html=1;jettySize=18;whiteSpace=wrap;overflow=block;blockSpacing=1;fontSize=13;strokeColor=#3a414a;strokeOpacity=100;strokeWidth=0.8;rounded=1;arcSize=12;edgeStyle=orthogonalEdgeStyle;startArrow=none;endArrow=block;endFill=1;exitX=1;exitY=0.5;exitPerimeter=0;entryX=-0.004;entryY=0.5;entryPerimeter=0;lucidId=MQSqsTY8fPqA;" edge="1" parent="1" source="YCWpmOM7ewB6S8Fy5KMS-389" target="YCWpmOM7ewB6S8Fy5KMS-377">
          <mxGeometry width="100" height="100" relative="1" as="geometry">
            <Array as="points" />
          </mxGeometry>
        </mxCell>
        <mxCell id="YCWpmOM7ewB6S8Fy5KMS-407" value="Emit Event" style="text;html=1;resizable=0;labelBackgroundColor=default;align=center;verticalAlign=middle;fontStyle=1;fontColor=#333333;fontSize=13.3;" vertex="1" parent="YCWpmOM7ewB6S8Fy5KMS-406">
          <mxGeometry x="-0.11074889801040766" relative="1" as="geometry">
            <mxPoint as="offset" />
          </mxGeometry>
        </mxCell>
        <mxCell id="YCWpmOM7ewB6S8Fy5KMS-408" value="Actor" style="shape=umlActor;verticalLabelPosition=bottom;verticalAlign=top;html=1;" vertex="1" parent="1">
          <mxGeometry x="-210" y="-668" width="30" height="60" as="geometry" />
        </mxCell>
        <mxCell id="YCWpmOM7ewB6S8Fy5KMS-409" value="Authentication Services&amp;nbsp;" style="text;html=1;align=center;verticalAlign=middle;whiteSpace=wrap;rounded=0;" vertex="1" parent="1">
          <mxGeometry x="808" y="-781.5" width="60" height="30" as="geometry" />
        </mxCell>
        <mxCell id="YCWpmOM7ewB6S8Fy5KMS-410" value="Live Chat" style="text;html=1;align=center;verticalAlign=middle;whiteSpace=wrap;rounded=0;" vertex="1" parent="1">
          <mxGeometry x="1265" y="-976" width="60" height="30" as="geometry" />
        </mxCell>
        <mxCell id="YCWpmOM7ewB6S8Fy5KMS-411" value="Knowledge Base" style="text;html=1;align=center;verticalAlign=middle;whiteSpace=wrap;rounded=0;" vertex="1" parent="1">
          <mxGeometry x="1265" y="-815" width="60" height="30" as="geometry" />
        </mxCell>
        <mxCell id="YCWpmOM7ewB6S8Fy5KMS-412" value="CRM" style="text;html=1;align=center;verticalAlign=middle;whiteSpace=wrap;rounded=0;" vertex="1" parent="1">
          <mxGeometry x="1265" y="-672" width="60" height="30" as="geometry" />
        </mxCell>
        <mxCell id="YCWpmOM7ewB6S8Fy5KMS-413" value="Others" style="text;html=1;align=center;verticalAlign=middle;whiteSpace=wrap;rounded=0;" vertex="1" parent="1">
          <mxGeometry x="1263" y="-527" width="60" height="30" as="geometry" />
        </mxCell>
        <mxCell id="YCWpmOM7ewB6S8Fy5KMS-424" value="" style="group;dropTarget=0;pointerEvents=0;" vertex="1" parent="1">
          <mxGeometry x="1355" y="910" width="180" height="120" as="geometry" />
        </mxCell>
        <mxCell id="YCWpmOM7ewB6S8Fy5KMS-425" value="" style="html=1;overflow=block;blockSpacing=1;whiteSpace=wrap;shape=image;fontSize=13;spacing=0;strokeColor=none;strokeOpacity=100;rounded=1;absoluteArcSize=1;arcSize=9;strokeWidth=0;image=https://images.lucid.app/images/26230064-1304-4077-a670-fb0cdd433ad3/content;imageAspect=0;lucidId=C0SqjXb6u9Ex;" vertex="1" parent="YCWpmOM7ewB6S8Fy5KMS-424">
          <mxGeometry x="53" width="75" height="75" as="geometry" />
        </mxCell>
        <mxCell id="YCWpmOM7ewB6S8Fy5KMS-426" value="Send Event to Relevet Microservice" style="text;html=1;align=center;verticalAlign=middle;whiteSpace=wrap;rounded=0;" vertex="1" parent="1">
          <mxGeometry x="668" y="-540" width="240" height="30" as="geometry" />
        </mxCell>
        <mxCell id="YCWpmOM7ewB6S8Fy5KMS-433" value="&lt;span style=&quot;text-wrap-mode: nowrap;&quot;&gt;tawk.to video service&lt;/span&gt;" style="text;html=1;align=center;verticalAlign=middle;whiteSpace=wrap;rounded=0;" vertex="1" parent="1">
          <mxGeometry x="1420" y="1000" width="60" height="30" as="geometry" />
        </mxCell>
        <mxCell id="YCWpmOM7ewB6S8Fy5KMS-438" value="" style="group;dropTarget=0;pointerEvents=0;" vertex="1" parent="1">
          <mxGeometry x="340" y="5" width="180" height="120" as="geometry" />
        </mxCell>
        <mxCell id="YCWpmOM7ewB6S8Fy5KMS-439" value="" style="html=1;overflow=block;blockSpacing=1;whiteSpace=wrap;shape=image;fontSize=13;spacing=0;strokeColor=none;strokeOpacity=100;rounded=1;absoluteArcSize=1;arcSize=9;strokeWidth=0;image=https://images.lucid.app/images/26230064-1304-4077-a670-fb0cdd433ad3/content;imageAspect=0;lucidId=C0SqjXb6u9Ex;" vertex="1" parent="YCWpmOM7ewB6S8Fy5KMS-438">
          <mxGeometry x="53" width="75" height="75" as="geometry" />
        </mxCell>
        <mxCell id="YCWpmOM7ewB6S8Fy5KMS-440" value="TawkTo other services&amp;nbsp;" style="text;html=1;align=center;verticalAlign=middle;whiteSpace=wrap;rounded=0;" vertex="1" parent="1">
          <mxGeometry x="367.5" y="81" width="125" height="30" as="geometry" />
        </mxCell>
        <mxCell id="YCWpmOM7ewB6S8Fy5KMS-441" value="&lt;span style=&quot;text-wrap-mode: nowrap;&quot;&gt;My Calander&lt;/span&gt;" style="text;html=1;align=center;verticalAlign=middle;whiteSpace=wrap;rounded=0;" vertex="1" parent="1">
          <mxGeometry x="545" y="-210" width="60" height="30" as="geometry" />
        </mxCell>
        <mxCell id="YCWpmOM7ewB6S8Fy5KMS-442" style="edgeStyle=orthogonalEdgeStyle;rounded=0;orthogonalLoop=1;jettySize=auto;html=1;exitX=-0.013;exitY=0.613;exitDx=0;exitDy=0;exitPerimeter=0;" edge="1" parent="1" source="YCWpmOM7ewB6S8Fy5KMS-378">
          <mxGeometry relative="1" as="geometry">
            <mxPoint x="1298" y="-309" as="sourcePoint" />
            <mxPoint x="575" y="-210" as="targetPoint" />
            <Array as="points">
              <mxPoint x="1170" y="-389" />
              <mxPoint x="1170" y="-390" />
              <mxPoint x="1110" y="-390" />
              <mxPoint x="1110" y="-275" />
              <mxPoint x="575" y="-275" />
            </Array>
          </mxGeometry>
        </mxCell>
      </root>
    </mxGraphModel>
  </diagram>
</mxfile>
